<?xml version="1.0" encoding="utf-8"?>
<!-- Generator: Adobe Illustrator 20.1.0, SVG Export Plug-In . SVG Version: 6.00 Build 0)  -->
<svg version="1.1" id="Слой_1" xmlns="http://www.w3.org/2000/svg" xmlns:xlink="http://www.w3.org/1999/xlink" x="0px" y="0px"
	 viewBox="0 0 176 179" enable-background="new 0 0 176 179" xml:space="preserve">
<g>
	<g>
		<polygon fill="#32ADB8" points="145.3,90.7 145.3,90.7 163.5,127 166.7,123.8 166.7,57.6 119.9,10.9 86.8,32.2 		"/>
		<polygon fill="#DF3F18" points="166.7,123.8 145.3,90.7 86.8,149.2 86.8,149.2 50.5,167.4 53.7,170.6 119.9,170.6 		"/>
		<polygon fill="#FFC907" points="28.3,90.7 28.3,90.7 10.1,54.4 6.9,57.6 6.9,123.8 53.7,170.6 86.8,149.2 		"/>
		<polygon fill="#A1B500" points="6.9,57.6 28.3,90.7 86.8,32.2 86.8,32.3 119.9,10.9 119.9,10.9 53.8,10.9 		"/>
		<polygon fill="#7A8A00" points="6.9,57.6 33.6,85.5 28.3,90.7 		"/>
		<polygon fill="#22757D" points="119.9,10.9 92.1,37.5 86.8,32.3 		"/>
		<polygon fill="#9C2C11" points="166.7,123.8 140,96 145.3,90.7 		"/>
		<polygon fill="#BD9506" points="53.7,170.6 81.6,143.9 86.8,149.2 		"/>
	</g>
	<g>
		<circle fill="#13547A" cx="86.8" cy="90.7" r="29.5"/>
		<circle fill="#2A7DAD" cx="86.8" cy="87.6" r="29.5"/>
		<circle fill="#13547A" cx="86.8" cy="91" r="10.9"/>
		<circle fill="#FFDC98" cx="86.8" cy="87.6" r="10.9"/>
	</g>
</g>
</svg>
