<?xml version="1.0" encoding="utf-8"?>
<!-- Generator: Adobe Illustrator 20.1.0, SVG Export Plug-In . SVG Version: 6.00 Build 0)  -->
<svg version="1.1" id="Слой_1" xmlns="http://www.w3.org/2000/svg" xmlns:xlink="http://www.w3.org/1999/xlink" x="0px" y="0px"
	 viewBox="0 0 186.5 194.3" enable-background="new 0 0 186.5 194.3" xml:space="preserve">
<g>
	<g>
		<path fill="#DF3F18" d="M94.8,3.6c-18.7,0-33.9,15.2-33.9,33.9c0,18.7,33.9,67.8,33.9,67.8s33.9-49.1,33.9-67.8
			C128.7,18.8,113.5,3.6,94.8,3.6z M94.8,49.9c-6.4,0-11.6-5.2-11.6-11.6c0-6.4,5.2-11.6,11.6-11.6s11.6,5.2,11.6,11.6
			C106.4,44.7,101.2,49.9,94.8,49.9z"/>
		<path fill="#992408" d="M94.8,12.3c-14.4,0-26,11.6-26,26c0,14.4,11.6,26,26,26c14.4,0,26-11.6,26-26
			C120.8,24,109.1,12.3,94.8,12.3z M94.8,49.9c-6.4,0-11.6-5.2-11.6-11.6c0-6.4,5.2-11.6,11.6-11.6s11.6,5.2,11.6,11.6
			C106.4,44.7,101.2,49.9,94.8,49.9z"/>
	</g>
	<g>
		<path fill="#FFC907" d="M20.5,181.1c13.2,13.2,34.7,13.2,47.9,0c13.2-13.2,24-71.9,24-71.9s-58.7,10.7-71.9,24
			C7.3,146.4,7.3,167.8,20.5,181.1z M53.3,148.3c4.5,4.5,4.5,11.9,0,16.4c-4.5,4.5-11.9,4.5-16.4,0c-4.5-4.5-4.5-11.9,0-16.4
			C41.4,143.8,48.7,143.8,53.3,148.3z"/>
		<path fill="#BD9506" d="M26.7,174.9c10.2,10.2,26.6,10.2,36.8,0c10.2-10.2,10.2-26.6,0-36.8c-10.2-10.2-26.6-10.2-36.8,0
			C16.5,148.3,16.5,164.7,26.7,174.9z M53.3,148.3c4.5,4.5,4.5,11.9,0,16.4c-4.5,4.5-11.9,4.5-16.4,0c-4.5-4.5-4.5-11.9,0-16.4
			C41.4,143.8,48.7,143.8,53.3,148.3z"/>
	</g>
	<g>
		<path fill="#32ADB8" d="M169,181c13.2-13.2,13.2-34.7,0-47.9c-13.2-13.2-71.9-24-71.9-24s10.7,58.7,24,71.9
			C134.3,194.3,155.8,194.3,169,181z M136.3,148.3c4.5-4.5,11.9-4.5,16.4,0c4.5,4.5,4.5,11.9,0,16.4c-4.5,4.5-11.9,4.5-16.4,0
			C131.7,160.2,131.7,152.8,136.3,148.3z"/>
		<path fill="#22757D" d="M162.9,174.9c10.2-10.2,10.2-26.6,0-36.8c-10.2-10.2-26.6-10.2-36.8,0c-10.2,10.2-10.2,26.6,0,36.8
			C136.2,185.1,152.7,185.1,162.9,174.9z M136.3,148.3c4.5-4.5,11.9-4.5,16.4,0c4.5,4.5,4.5,11.9,0,16.4c-4.5,4.5-11.9,4.5-16.4,0
			C131.7,160.2,131.7,152.8,136.3,148.3z"/>
	</g>
</g>
</svg>
