<?xml version="1.0" encoding="utf-8"?>
<!-- Generator: Adobe Illustrator 20.1.0, SVG Export Plug-In . SVG Version: 6.00 Build 0)  -->
<svg version="1.1" id="Слой_1" xmlns="http://www.w3.org/2000/svg" xmlns:xlink="http://www.w3.org/1999/xlink" x="0px" y="0px"
	 viewBox="0 0 200 200" enable-background="new 0 0 200 200" xml:space="preserve">
<g>
	<g>
		<polygon fill="#DF3F18" points="155.5,79.1 100.3,115.2 45.1,79.1 		"/>
		<polygon fill="#9C2C11" points="155.5,79.1 100.3,174.6 100.3,115.2 		"/>
		<polygon fill="#F26644" points="100.3,115.2 100.3,174.6 45.1,79.1 		"/>
	</g>
	<g>
		<polygon fill="#BD9506" points="45.1,68.7 100.3,50.6 155.5,68.7 		"/>
		<polygon fill="#FFD954" points="45.1,68.7 100.3,16.6 100.3,50.6 		"/>
		<polygon fill="#FFC907" points="100.3,50.6 100.3,16.6 155.5,68.7 		"/>
	</g>
	<g>
		<g>
			<polygon fill="#7A8A00" points="92.7,183.3 49.7,144.3 38.1,87.4 			"/>
			<polygon fill="#A1B500" points="92.7,183.3 20.1,161.1 49.7,144.3 			"/>
			<polygon fill="#C0D612" points="49.7,144.3 20.1,161.1 38.1,87.4 			"/>
		</g>
		<g>
			<polygon fill="#22757D" points="107.8,183.3 150.9,144.3 162.5,87.4 			"/>
			<polygon fill="#32ADB8" points="107.8,183.3 180.4,161.1 150.9,144.3 			"/>
			<polygon fill="#67D1DB" points="150.9,144.3 180.4,161.1 162.5,87.4 			"/>
		</g>
	</g>
</g>
</svg>
