<?xml version="1.0" encoding="utf-8"?>
<!-- Generator: Adobe Illustrator 20.1.0, SVG Export Plug-In . SVG Version: 6.00 Build 0)  -->
<svg version="1.1" id="Слой_1" xmlns="http://www.w3.org/2000/svg" xmlns:xlink="http://www.w3.org/1999/xlink" x="0px" y="0px"
	 viewBox="0 0 200 200" enable-background="new 0 0 200 200" xml:space="preserve">
<g>
	<path fill="#DF3F18" d="M92.2,24.2c-36.1,0-65.4,29.3-65.4,65.4c0,36.1,29.3,65.4,65.4,65.4s65.4-29.3,65.4-65.4
		C157.6,53.5,128.3,24.2,92.2,24.2z M92.2,137.2c-26.3,0-47.6-21.3-47.6-47.6C44.6,63.3,65.9,42,92.2,42c26.3,0,47.6,21.3,47.6,47.6
		C139.7,115.9,118.4,137.2,92.2,137.2z"/>
	<path fill="#2A7DAD" d="M92.2,53.4c-20,0-36.2,16.2-36.2,36.2c0,20,16.2,36.2,36.2,36.2c20,0,36.2-16.2,36.2-36.2
		C128.3,69.6,112.1,53.4,92.2,53.4z M92.2,112.7c-12.7,0-23.1-10.3-23.1-23.1c0-12.7,10.3-23.1,23.1-23.1
		c12.7,0,23.1,10.3,23.1,23.1C115.2,102.3,104.9,112.7,92.2,112.7z"/>
	<path fill="#9C2C11" d="M163.3,110.3c-7,25.4-27.6,45.2-53.4,51.2l63.7,14.5L163.3,110.3z"/>
	<g>
		
			<ellipse transform="matrix(0.7071 -0.7071 0.7071 0.7071 -36.3653 91.4174)" fill="#DF3F18" cx="92.2" cy="89.6" rx="14.6" ry="14.6"/>
		<path fill="#9C2C11" d="M98.6,96c-5,5-12.8,5.6-18.5,1.8c0.5,0.8,1.1,1.5,1.8,2.1c5.7,5.7,14.9,5.7,20.6,0
			c5.7-5.7,5.7-14.9,0-20.6c-0.7-0.7-1.4-1.3-2.1-1.8C104.2,83.2,103.6,91,98.6,96z"/>
		
			<ellipse transform="matrix(0.707 -0.7072 0.7072 0.707 -34.7488 87.5315)" fill="#F26644" cx="88.3" cy="85.7" rx="5.9" ry="5.9"/>
	</g>
</g>
</svg>
