<?xml version="1.0" encoding="utf-8"?>
<!-- Generator: Adobe Illustrator 20.1.0, SVG Export Plug-In . SVG Version: 6.00 Build 0)  -->
<svg version="1.1" id="Design" xmlns="http://www.w3.org/2000/svg" xmlns:xlink="http://www.w3.org/1999/xlink" x="0px" y="0px"
	 viewBox="0 0 800 800" enable-background="new 0 0 800 800" xml:space="preserve">
<g>
	<g opacity="0.4">
		<circle fill-rule="evenodd" clip-rule="evenodd" fill="#FFFFFF" cx="291.6" cy="249.9" r="79.1"/>
		<circle fill-rule="evenodd" clip-rule="evenodd" fill="#F6F7F8" cx="296.1" cy="245.3" r="79.1"/>
		<circle fill-rule="evenodd" clip-rule="evenodd" fill="#EDF0F2" cx="300.7" cy="240.8" r="79.1"/>
		<circle fill-rule="evenodd" clip-rule="evenodd" fill="#E5E8EB" cx="305.2" cy="236.2" r="79.1"/>
		<circle fill-rule="evenodd" clip-rule="evenodd" fill="#DCE1E5" cx="309.8" cy="231.7" r="79.1"/>
		<circle fill-rule="evenodd" clip-rule="evenodd" fill="#D3D9DE" cx="314.4" cy="227.1" r="79.1"/>
		<circle fill-rule="evenodd" clip-rule="evenodd" fill="#CAD2D8" cx="318.9" cy="222.6" r="79.1"/>
		<circle fill-rule="evenodd" clip-rule="evenodd" fill="#C2CAD1" cx="323.5" cy="218" r="79.1"/>
		<circle fill-rule="evenodd" clip-rule="evenodd" fill="#B9C2CA" cx="328" cy="213.5" r="79.1"/>
		<circle fill-rule="evenodd" clip-rule="evenodd" fill="#B0BBC4" cx="332.6" cy="208.9" r="79.1"/>
		<circle fill-rule="evenodd" clip-rule="evenodd" fill="#A7B3BD" cx="337.1" cy="204.4" r="79.1"/>
		<circle fill-rule="evenodd" clip-rule="evenodd" fill="#9FACB7" cx="341.7" cy="199.8" r="79.1"/>
		<circle fill-rule="evenodd" clip-rule="evenodd" fill="#96A4B0" cx="346.2" cy="195.3" r="79.1"/>
		<circle fill-rule="evenodd" clip-rule="evenodd" fill="#8D9DAA" cx="350.8" cy="190.7" r="79.1"/>
		<circle fill-rule="evenodd" clip-rule="evenodd" fill="#8495A3" cx="355.3" cy="186.2" r="79.1"/>
		<circle fill-rule="evenodd" clip-rule="evenodd" fill="#7C8D9C" cx="359.9" cy="181.6" r="79.1"/>
		<circle fill-rule="evenodd" clip-rule="evenodd" fill="#738696" cx="364.4" cy="177.1" r="79.1"/>
		<circle fill-rule="evenodd" clip-rule="evenodd" fill="#6A7E8F" cx="369" cy="172.5" r="79.1"/>
		<circle fill-rule="evenodd" clip-rule="evenodd" fill="#617789" cx="373.5" cy="168" r="79.1"/>
		<circle fill-rule="evenodd" clip-rule="evenodd" fill="#596F82" cx="378.1" cy="163.4" r="79.1"/>
		<circle fill-rule="evenodd" clip-rule="evenodd" fill="#50687C" cx="382.6" cy="158.9" r="79.1"/>
		<circle fill-rule="evenodd" clip-rule="evenodd" fill="#476075" cx="387.2" cy="154.3" r="79.1"/>
	</g>
	<linearGradient id="SVGID_1_" gradientUnits="userSpaceOnUse" x1="439.181" y1="98.6704" x2="299.6162" y2="248.2033">
		<stop  offset="0" style="stop-color:#FFFFFF"/>
		<stop  offset="1" style="stop-color:#D8E2E9"/>
	</linearGradient>
	<circle fill-rule="evenodd" clip-rule="evenodd" fill="url(#SVGID_1_)" cx="388.3" cy="153.2" r="79.1"/>
	<circle fill-rule="evenodd" clip-rule="evenodd" fill="#DD4298" cx="388.3" cy="153.2" r="77.3"/>
</g>
<g>
	<g opacity="0.4">
		<circle fill-rule="evenodd" clip-rule="evenodd" fill="#FFFFFF" cx="389.7" cy="736.7" r="58.9"/>
		<circle fill-rule="evenodd" clip-rule="evenodd" fill="#F6F7F8" cx="392.3" cy="734.1" r="58.9"/>
		<circle fill-rule="evenodd" clip-rule="evenodd" fill="#EDF0F2" cx="394.9" cy="731.5" r="58.9"/>
		<circle fill-rule="evenodd" clip-rule="evenodd" fill="#E5E8EB" cx="397.4" cy="729" r="58.9"/>
		<circle fill-rule="evenodd" clip-rule="evenodd" fill="#DCE1E5" cx="400" cy="726.4" r="58.9"/>
		<circle fill-rule="evenodd" clip-rule="evenodd" fill="#D3D9DE" cx="402.6" cy="723.8" r="58.9"/>
		<circle fill-rule="evenodd" clip-rule="evenodd" fill="#CAD2D8" cx="405.1" cy="721.3" r="58.9"/>
		<circle fill-rule="evenodd" clip-rule="evenodd" fill="#C2CAD1" cx="407.7" cy="718.7" r="58.9"/>
		<circle fill-rule="evenodd" clip-rule="evenodd" fill="#B9C2CA" cx="410.3" cy="716.1" r="58.9"/>
		<circle fill-rule="evenodd" clip-rule="evenodd" fill="#B0BBC4" cx="412.8" cy="713.6" r="58.9"/>
		<circle fill-rule="evenodd" clip-rule="evenodd" fill="#A7B3BD" cx="415.4" cy="711" r="58.9"/>
		<circle fill-rule="evenodd" clip-rule="evenodd" fill="#9FACB7" cx="418" cy="708.4" r="58.9"/>
		<circle fill-rule="evenodd" clip-rule="evenodd" fill="#96A4B0" cx="420.5" cy="705.9" r="58.9"/>
		<circle fill-rule="evenodd" clip-rule="evenodd" fill="#8D9DAA" cx="423.1" cy="703.3" r="58.9"/>
		<circle fill-rule="evenodd" clip-rule="evenodd" fill="#8495A3" cx="425.7" cy="700.7" r="58.9"/>
		<circle fill-rule="evenodd" clip-rule="evenodd" fill="#7C8D9C" cx="428.2" cy="698.2" r="58.9"/>
		<circle fill-rule="evenodd" clip-rule="evenodd" fill="#738696" cx="430.8" cy="695.6" r="58.9"/>
		<circle fill-rule="evenodd" clip-rule="evenodd" fill="#6A7E8F" cx="433.4" cy="693" r="58.9"/>
		<circle fill-rule="evenodd" clip-rule="evenodd" fill="#617789" cx="435.9" cy="690.5" r="58.9"/>
		<circle fill-rule="evenodd" clip-rule="evenodd" fill="#596F82" cx="438.5" cy="687.9" r="58.9"/>
		<circle fill-rule="evenodd" clip-rule="evenodd" fill="#50687C" cx="441.1" cy="685.3" r="58.9"/>
		<circle fill-rule="evenodd" clip-rule="evenodd" fill="#476075" cx="443.6" cy="682.8" r="58.9"/>
	</g>
	<linearGradient id="SVGID_2_" gradientUnits="userSpaceOnUse" x1="482.3412" y1="641.3464" x2="378.4109" y2="752.6997">
		<stop  offset="0" style="stop-color:#FFFFFF"/>
		<stop  offset="1" style="stop-color:#D8E2E9"/>
	</linearGradient>
	<circle fill-rule="evenodd" clip-rule="evenodd" fill="url(#SVGID_2_)" cx="444.4" cy="682" r="58.9"/>
	<circle fill-rule="evenodd" clip-rule="evenodd" fill="#EE2726" cx="444.4" cy="682" r="57.5"/>
</g>
<g>
	<g opacity="0.4">
		<circle fill-rule="evenodd" clip-rule="evenodd" fill="#FFFFFF" cx="611.2" cy="601.7" r="41.9"/>
		<circle fill-rule="evenodd" clip-rule="evenodd" fill="#F6F7F8" cx="615.7" cy="597.2" r="41.9"/>
		<circle fill-rule="evenodd" clip-rule="evenodd" fill="#EDF0F2" cx="620.2" cy="592.6" r="41.9"/>
		<circle fill-rule="evenodd" clip-rule="evenodd" fill="#E5E8EB" cx="624.7" cy="588.1" r="41.9"/>
		<circle fill-rule="evenodd" clip-rule="evenodd" fill="#DCE1E5" cx="629.2" cy="583.6" r="41.9"/>
		<circle fill-rule="evenodd" clip-rule="evenodd" fill="#D3D9DE" cx="633.8" cy="579.1" r="41.9"/>
		<circle fill-rule="evenodd" clip-rule="evenodd" fill="#CAD2D8" cx="638.3" cy="574.6" r="41.9"/>
		<circle fill-rule="evenodd" clip-rule="evenodd" fill="#C2CAD1" cx="642.8" cy="570.1" r="41.9"/>
		<circle fill-rule="evenodd" clip-rule="evenodd" fill="#B9C2CA" cx="647.3" cy="565.5" r="41.9"/>
		<circle fill-rule="evenodd" clip-rule="evenodd" fill="#B0BBC4" cx="651.8" cy="561" r="41.9"/>
		<circle fill-rule="evenodd" clip-rule="evenodd" fill="#A7B3BD" cx="656.3" cy="556.5" r="41.9"/>
		<circle fill-rule="evenodd" clip-rule="evenodd" fill="#9FACB7" cx="660.8" cy="552" r="41.9"/>
		<circle fill-rule="evenodd" clip-rule="evenodd" fill="#96A4B0" cx="665.4" cy="547.5" r="41.9"/>
		<circle fill-rule="evenodd" clip-rule="evenodd" fill="#8D9DAA" cx="669.9" cy="543" r="41.9"/>
		<circle fill-rule="evenodd" clip-rule="evenodd" fill="#8495A3" cx="674.4" cy="538.4" r="41.9"/>
		<circle fill-rule="evenodd" clip-rule="evenodd" fill="#7C8D9C" cx="678.9" cy="533.9" r="41.9"/>
		<circle fill-rule="evenodd" clip-rule="evenodd" fill="#738696" cx="683.4" cy="529.4" r="41.9"/>
		<circle fill-rule="evenodd" clip-rule="evenodd" fill="#6A7E8F" cx="687.9" cy="524.9" r="41.9"/>
		<circle fill-rule="evenodd" clip-rule="evenodd" fill="#617789" cx="692.5" cy="520.4" r="41.9"/>
		<circle fill-rule="evenodd" clip-rule="evenodd" fill="#596F82" cx="697" cy="515.9" r="41.9"/>
		<circle fill-rule="evenodd" clip-rule="evenodd" fill="#50687C" cx="701.5" cy="511.4" r="41.9"/>
		<circle fill-rule="evenodd" clip-rule="evenodd" fill="#476075" cx="706" cy="506.8" r="41.9"/>
	</g>
	<linearGradient id="SVGID_3_" gradientUnits="userSpaceOnUse" x1="733.5272" y1="477.3907" x2="659.6631" y2="556.5304">
		<stop  offset="0" style="stop-color:#FFFFFF"/>
		<stop  offset="1" style="stop-color:#D8E2E9"/>
	</linearGradient>
	<ellipse fill-rule="evenodd" clip-rule="evenodd" fill="url(#SVGID_3_)" cx="706.6" cy="506.3" rx="41.9" ry="41.9"/>
	<circle fill-rule="evenodd" clip-rule="evenodd" fill="#FFC444" cx="706.6" cy="506.3" r="40.9"/>
</g>
<g>
	<g opacity="0.4">
		<ellipse fill-rule="evenodd" clip-rule="evenodd" fill="#FFFFFF" cx="169.6" cy="599.4" rx="136.1" ry="136.1"/>
		<ellipse fill-rule="evenodd" clip-rule="evenodd" fill="#F6F7F8" cx="171.7" cy="597.4" rx="136.1" ry="136.1"/>
		<ellipse fill-rule="evenodd" clip-rule="evenodd" fill="#EDF0F2" cx="173.7" cy="595.3" rx="136.1" ry="136.1"/>
		<ellipse fill-rule="evenodd" clip-rule="evenodd" fill="#E5E8EB" cx="175.8" cy="593.3" rx="136.1" ry="136.1"/>
		<ellipse fill-rule="evenodd" clip-rule="evenodd" fill="#DCE1E5" cx="177.8" cy="591.2" rx="136.1" ry="136.1"/>
		<circle fill-rule="evenodd" clip-rule="evenodd" fill="#D3D9DE" cx="179.9" cy="589.2" r="136.1"/>
		<circle fill-rule="evenodd" clip-rule="evenodd" fill="#CAD2D8" cx="182" cy="587.1" r="136.1"/>
		<circle fill-rule="evenodd" clip-rule="evenodd" fill="#C2CAD1" cx="184" cy="585.1" r="136.1"/>
		<circle fill-rule="evenodd" clip-rule="evenodd" fill="#B9C2CA" cx="186.1" cy="583" r="136.1"/>
		<circle fill-rule="evenodd" clip-rule="evenodd" fill="#B0BBC4" cx="188.1" cy="581" r="136.1"/>
		<circle fill-rule="evenodd" clip-rule="evenodd" fill="#A7B3BD" cx="190.2" cy="578.9" r="136.1"/>
		<circle fill-rule="evenodd" clip-rule="evenodd" fill="#9FACB7" cx="192.2" cy="576.8" r="136.1"/>
		<circle fill-rule="evenodd" clip-rule="evenodd" fill="#96A4B0" cx="194.3" cy="574.8" r="136.1"/>
		<circle fill-rule="evenodd" clip-rule="evenodd" fill="#8D9DAA" cx="196.3" cy="572.7" r="136.1"/>
		<circle fill-rule="evenodd" clip-rule="evenodd" fill="#8495A3" cx="198.4" cy="570.7" r="136.1"/>
		<circle fill-rule="evenodd" clip-rule="evenodd" fill="#7C8D9C" cx="200.5" cy="568.6" r="136.1"/>
		<circle fill-rule="evenodd" clip-rule="evenodd" fill="#738696" cx="202.5" cy="566.6" r="136.1"/>
		<circle fill-rule="evenodd" clip-rule="evenodd" fill="#6A7E8F" cx="204.6" cy="564.5" r="136.1"/>
		<circle fill-rule="evenodd" clip-rule="evenodd" fill="#617789" cx="206.6" cy="562.5" r="136.1"/>
		<circle fill-rule="evenodd" clip-rule="evenodd" fill="#596F82" cx="208.7" cy="560.4" r="136.1"/>
		<circle fill-rule="evenodd" clip-rule="evenodd" fill="#50687C" cx="210.7" cy="558.3" r="136.1"/>
		<circle fill-rule="evenodd" clip-rule="evenodd" fill="#476075" cx="212.8" cy="556.3" r="136.1"/>
	</g>
	<linearGradient id="SVGID_4_" gradientUnits="userSpaceOnUse" x1="302.2493" y1="460.5681" x2="62.1158" y2="717.8528">
		<stop  offset="0" style="stop-color:#FFFFFF"/>
		<stop  offset="1" style="stop-color:#D8E2E9"/>
	</linearGradient>
	<circle fill-rule="evenodd" clip-rule="evenodd" fill="url(#SVGID_4_)" cx="214.7" cy="554.4" r="136.1"/>
	<ellipse fill-rule="evenodd" clip-rule="evenodd" fill="#7AC143" cx="214.7" cy="554.4" rx="132.9" ry="132.9"/>
</g>
<g>
	<g opacity="0.4">
		<circle fill-rule="evenodd" clip-rule="evenodd" fill="#FFFFFF" cx="142.2" cy="419.7" r="125.7"/>
		<circle fill-rule="evenodd" clip-rule="evenodd" fill="#F6F7F8" cx="145.7" cy="416.2" r="125.7"/>
		<circle fill-rule="evenodd" clip-rule="evenodd" fill="#EDF0F2" cx="149.2" cy="412.7" r="125.7"/>
		<circle fill-rule="evenodd" clip-rule="evenodd" fill="#E5E8EB" cx="152.7" cy="409.2" r="125.7"/>
		<circle fill-rule="evenodd" clip-rule="evenodd" fill="#DCE1E5" cx="156.3" cy="405.7" r="125.7"/>
		<circle fill-rule="evenodd" clip-rule="evenodd" fill="#D3D9DE" cx="159.8" cy="402.2" r="125.7"/>
		<circle fill-rule="evenodd" clip-rule="evenodd" fill="#CAD2D8" cx="163.3" cy="398.7" r="125.7"/>
		<circle fill-rule="evenodd" clip-rule="evenodd" fill="#C2CAD1" cx="166.8" cy="395.2" r="125.7"/>
		<circle fill-rule="evenodd" clip-rule="evenodd" fill="#B9C2CA" cx="170.3" cy="391.6" r="125.7"/>
		<circle fill-rule="evenodd" clip-rule="evenodd" fill="#B0BBC4" cx="173.8" cy="388.1" r="125.7"/>
		<circle fill-rule="evenodd" clip-rule="evenodd" fill="#A7B3BD" cx="177.3" cy="384.6" r="125.7"/>
		<circle fill-rule="evenodd" clip-rule="evenodd" fill="#9FACB7" cx="180.8" cy="381.1" r="125.7"/>
		<circle fill-rule="evenodd" clip-rule="evenodd" fill="#96A4B0" cx="184.3" cy="377.6" r="125.7"/>
		<circle fill-rule="evenodd" clip-rule="evenodd" fill="#8D9DAA" cx="187.8" cy="374.1" r="125.7"/>
		<circle fill-rule="evenodd" clip-rule="evenodd" fill="#8495A3" cx="191.4" cy="370.6" r="125.7"/>
		<circle fill-rule="evenodd" clip-rule="evenodd" fill="#7C8D9C" cx="194.9" cy="367.1" r="125.7"/>
		<circle fill-rule="evenodd" clip-rule="evenodd" fill="#738696" cx="198.4" cy="363.6" r="125.7"/>
		<circle fill-rule="evenodd" clip-rule="evenodd" fill="#6A7E8F" cx="201.9" cy="360" r="125.7"/>
		<circle fill-rule="evenodd" clip-rule="evenodd" fill="#617789" cx="205.4" cy="356.5" r="125.7"/>
		<circle fill-rule="evenodd" clip-rule="evenodd" fill="#596F82" cx="208.9" cy="353" r="125.7"/>
		<circle fill-rule="evenodd" clip-rule="evenodd" fill="#50687C" cx="212.4" cy="349.5" r="125.7"/>
		<circle fill-rule="evenodd" clip-rule="evenodd" fill="#476075" cx="215.9" cy="346" r="125.7"/>
	</g>
	<linearGradient id="SVGID_5_" gradientUnits="userSpaceOnUse" x1="298.5264" y1="257.6343" x2="76.8636" y2="495.129">
		<stop  offset="0" style="stop-color:#FFFFFF"/>
		<stop  offset="1" style="stop-color:#D8E2E9"/>
	</linearGradient>
	<path fill-rule="evenodd" clip-rule="evenodd" fill="url(#SVGID_5_)" d="M343.3,344.3c0,69.4-56.3,125.7-125.7,125.7
		C148.3,469.9,92,413.7,92,344.3c0-69.4,56.3-125.7,125.7-125.7C287.1,218.6,343.3,274.9,343.3,344.3z"/>
	
		<linearGradient id="SVGID_6_" gradientUnits="userSpaceOnUse" x1="830.4958" y1="-204.5514" x2="614.0689" y2="27.3335" gradientTransform="matrix(-1 0 0 -1 969.2207 224.2969)">
		<stop  offset="0" style="stop-color:#FFFFFF"/>
		<stop  offset="1" style="stop-color:#D8E2E9"/>
	</linearGradient>
	<ellipse fill-rule="evenodd" clip-rule="evenodd" fill="url(#SVGID_6_)" cx="217.7" cy="344.3" rx="122.7" ry="122.7"/>
</g>
<g>
	<g opacity="0.4">
		<circle fill-rule="evenodd" clip-rule="evenodd" fill="#FFFFFF" cx="559.9" cy="481.1" r="92.8"/>
		<circle fill-rule="evenodd" clip-rule="evenodd" fill="#F6F7F8" cx="562.5" cy="478.5" r="92.8"/>
		<circle fill-rule="evenodd" clip-rule="evenodd" fill="#EDF0F2" cx="565.1" cy="475.9" r="92.8"/>
		<circle fill-rule="evenodd" clip-rule="evenodd" fill="#E5E8EB" cx="567.7" cy="473.3" r="92.8"/>
		<circle fill-rule="evenodd" clip-rule="evenodd" fill="#DCE1E5" cx="570.3" cy="470.7" r="92.8"/>
		<circle fill-rule="evenodd" clip-rule="evenodd" fill="#D3D9DE" cx="572.9" cy="468.1" r="92.8"/>
		<circle fill-rule="evenodd" clip-rule="evenodd" fill="#CAD2D8" cx="575.5" cy="465.5" r="92.8"/>
		<circle fill-rule="evenodd" clip-rule="evenodd" fill="#C2CAD1" cx="578.1" cy="462.9" r="92.8"/>
		<circle fill-rule="evenodd" clip-rule="evenodd" fill="#B9C2CA" cx="580.6" cy="460.3" r="92.8"/>
		<circle fill-rule="evenodd" clip-rule="evenodd" fill="#B0BBC4" cx="583.2" cy="457.7" r="92.8"/>
		<circle fill-rule="evenodd" clip-rule="evenodd" fill="#A7B3BD" cx="585.8" cy="455.1" r="92.8"/>
		<circle fill-rule="evenodd" clip-rule="evenodd" fill="#9FACB7" cx="588.4" cy="452.5" r="92.8"/>
		<circle fill-rule="evenodd" clip-rule="evenodd" fill="#96A4B0" cx="591" cy="449.9" r="92.8"/>
		<circle fill-rule="evenodd" clip-rule="evenodd" fill="#8D9DAA" cx="593.6" cy="447.3" r="92.8"/>
		<circle fill-rule="evenodd" clip-rule="evenodd" fill="#8495A3" cx="596.2" cy="444.8" r="92.8"/>
		<circle fill-rule="evenodd" clip-rule="evenodd" fill="#7C8D9C" cx="598.8" cy="442.2" r="92.8"/>
		<circle fill-rule="evenodd" clip-rule="evenodd" fill="#738696" cx="601.4" cy="439.6" r="92.8"/>
		<circle fill-rule="evenodd" clip-rule="evenodd" fill="#6A7E8F" cx="604" cy="437" r="92.8"/>
		<circle fill-rule="evenodd" clip-rule="evenodd" fill="#617789" cx="606.6" cy="434.4" r="92.8"/>
		<circle fill-rule="evenodd" clip-rule="evenodd" fill="#596F82" cx="609.2" cy="431.8" r="92.8"/>
		<circle fill-rule="evenodd" clip-rule="evenodd" fill="#50687C" cx="611.8" cy="429.2" r="92.8"/>
		<circle fill-rule="evenodd" clip-rule="evenodd" fill="#476075" cx="614.4" cy="426.6" r="92.8"/>
	</g>
	<linearGradient id="SVGID_7_" gradientUnits="userSpaceOnUse" x1="675.3596" y1="361.3372" x2="511.6429" y2="536.7472">
		<stop  offset="0" style="stop-color:#FFFFFF"/>
		<stop  offset="1" style="stop-color:#D8E2E9"/>
	</linearGradient>
	<ellipse fill-rule="evenodd" clip-rule="evenodd" fill="url(#SVGID_7_)" cx="615.6" cy="425.3" rx="92.8" ry="92.8"/>
	
		<linearGradient id="SVGID_8_" gradientUnits="userSpaceOnUse" x1="411.8885" y1="-263.4967" x2="252.0392" y2="-92.2303" gradientTransform="matrix(-1 0 0 -1 969.2207 224.2969)">
		<stop  offset="0" style="stop-color:#FFFFFF"/>
		<stop  offset="1" style="stop-color:#D8E2E9"/>
	</linearGradient>
	<circle fill-rule="evenodd" clip-rule="evenodd" fill="url(#SVGID_8_)" cx="615.6" cy="425.3" r="90.6"/>
</g>
<g>
	<g opacity="0.4">
		<circle fill-rule="evenodd" clip-rule="evenodd" fill="#FFFFFF" cx="548" cy="270.8" r="92.8"/>
		<circle fill-rule="evenodd" clip-rule="evenodd" fill="#F6F7F8" cx="550.6" cy="268.2" r="92.8"/>
		<circle fill-rule="evenodd" clip-rule="evenodd" fill="#EDF0F2" cx="553.2" cy="265.6" r="92.8"/>
		<circle fill-rule="evenodd" clip-rule="evenodd" fill="#E5E8EB" cx="555.7" cy="263" r="92.8"/>
		<circle fill-rule="evenodd" clip-rule="evenodd" fill="#DCE1E5" cx="558.3" cy="260.4" r="92.8"/>
		<circle fill-rule="evenodd" clip-rule="evenodd" fill="#D3D9DE" cx="560.9" cy="257.8" r="92.8"/>
		<circle fill-rule="evenodd" clip-rule="evenodd" fill="#CAD2D8" cx="563.5" cy="255.3" r="92.8"/>
		<circle fill-rule="evenodd" clip-rule="evenodd" fill="#C2CAD1" cx="566.1" cy="252.7" r="92.8"/>
		<circle fill-rule="evenodd" clip-rule="evenodd" fill="#B9C2CA" cx="568.7" cy="250.1" r="92.8"/>
		<circle fill-rule="evenodd" clip-rule="evenodd" fill="#B0BBC4" cx="571.3" cy="247.5" r="92.8"/>
		<circle fill-rule="evenodd" clip-rule="evenodd" fill="#A7B3BD" cx="573.9" cy="244.9" r="92.8"/>
		<circle fill-rule="evenodd" clip-rule="evenodd" fill="#9FACB7" cx="576.5" cy="242.3" r="92.8"/>
		<circle fill-rule="evenodd" clip-rule="evenodd" fill="#96A4B0" cx="579.1" cy="239.7" r="92.8"/>
		<circle fill-rule="evenodd" clip-rule="evenodd" fill="#8D9DAA" cx="581.7" cy="237.1" r="92.8"/>
		<circle fill-rule="evenodd" clip-rule="evenodd" fill="#8495A3" cx="584.3" cy="234.5" r="92.8"/>
		<circle fill-rule="evenodd" clip-rule="evenodd" fill="#7C8D9C" cx="586.9" cy="231.9" r="92.8"/>
		<circle fill-rule="evenodd" clip-rule="evenodd" fill="#738696" cx="589.5" cy="229.3" r="92.8"/>
		<circle fill-rule="evenodd" clip-rule="evenodd" fill="#6A7E8F" cx="592.1" cy="226.7" r="92.8"/>
		<circle fill-rule="evenodd" clip-rule="evenodd" fill="#617789" cx="594.6" cy="224.1" r="92.8"/>
		<circle fill-rule="evenodd" clip-rule="evenodd" fill="#596F82" cx="597.2" cy="221.5" r="92.8"/>
		<circle fill-rule="evenodd" clip-rule="evenodd" fill="#50687C" cx="599.8" cy="218.9" r="92.8"/>
		<ellipse fill-rule="evenodd" clip-rule="evenodd" fill="#476075" cx="602.4" cy="216.4" rx="92.8" ry="92.8"/>
	</g>
	<linearGradient id="SVGID_9_" gradientUnits="userSpaceOnUse" x1="663.4241" y1="151.0891" x2="499.7063" y2="326.5002">
		<stop  offset="0" style="stop-color:#FFFFFF"/>
		<stop  offset="1" style="stop-color:#D8E2E9"/>
	</linearGradient>
	<circle fill-rule="evenodd" clip-rule="evenodd" fill="url(#SVGID_9_)" cx="603.7" cy="215.1" r="92.8"/>
	
		<linearGradient id="SVGID_10_" gradientUnits="userSpaceOnUse" x1="423.8244" y1="-53.2489" x2="263.9744" y2="118.0182" gradientTransform="matrix(-1 0 0 -1 969.2207 224.2969)">
		<stop  offset="0" style="stop-color:#FFFFFF"/>
		<stop  offset="1" style="stop-color:#D8E2E9"/>
	</linearGradient>
	<circle fill-rule="evenodd" clip-rule="evenodd" fill="url(#SVGID_10_)" cx="603.7" cy="215.1" r="90.6"/>
</g>
<g>
	<g opacity="0.4">
		<ellipse fill-rule="evenodd" clip-rule="evenodd" fill="#FFFFFF" cx="316.8" cy="634.6" rx="92.8" ry="92.8"/>
		<circle fill-rule="evenodd" clip-rule="evenodd" fill="#F6F7F8" cx="319.4" cy="632" r="92.8"/>
		<circle fill-rule="evenodd" clip-rule="evenodd" fill="#EDF0F2" cx="322" cy="629.4" r="92.8"/>
		<circle fill-rule="evenodd" clip-rule="evenodd" fill="#E5E8EB" cx="324.6" cy="626.9" r="92.8"/>
		<circle fill-rule="evenodd" clip-rule="evenodd" fill="#DCE1E5" cx="327.2" cy="624.3" r="92.8"/>
		<circle fill-rule="evenodd" clip-rule="evenodd" fill="#D3D9DE" cx="329.8" cy="621.7" r="92.8"/>
		<circle fill-rule="evenodd" clip-rule="evenodd" fill="#CAD2D8" cx="332.4" cy="619.1" r="92.8"/>
		<circle fill-rule="evenodd" clip-rule="evenodd" fill="#C2CAD1" cx="335" cy="616.5" r="92.8"/>
		<circle fill-rule="evenodd" clip-rule="evenodd" fill="#B9C2CA" cx="337.6" cy="613.9" r="92.8"/>
		<circle fill-rule="evenodd" clip-rule="evenodd" fill="#B0BBC4" cx="340.2" cy="611.3" r="92.8"/>
		<circle fill-rule="evenodd" clip-rule="evenodd" fill="#A7B3BD" cx="342.8" cy="608.7" r="92.8"/>
		<circle fill-rule="evenodd" clip-rule="evenodd" fill="#9FACB7" cx="345.4" cy="606.1" r="92.8"/>
		<circle fill-rule="evenodd" clip-rule="evenodd" fill="#96A4B0" cx="347.9" cy="603.5" r="92.8"/>
		<circle fill-rule="evenodd" clip-rule="evenodd" fill="#8D9DAA" cx="350.5" cy="600.9" r="92.8"/>
		<circle fill-rule="evenodd" clip-rule="evenodd" fill="#8495A3" cx="353.1" cy="598.3" r="92.8"/>
		<circle fill-rule="evenodd" clip-rule="evenodd" fill="#7C8D9C" cx="355.7" cy="595.7" r="92.8"/>
		<circle fill-rule="evenodd" clip-rule="evenodd" fill="#738696" cx="358.3" cy="593.1" r="92.8"/>
		<circle fill-rule="evenodd" clip-rule="evenodd" fill="#6A7E8F" cx="360.9" cy="590.5" r="92.8"/>
		<circle fill-rule="evenodd" clip-rule="evenodd" fill="#617789" cx="363.5" cy="588" r="92.8"/>
		<circle fill-rule="evenodd" clip-rule="evenodd" fill="#596F82" cx="366.1" cy="585.4" r="92.8"/>
		<circle fill-rule="evenodd" clip-rule="evenodd" fill="#50687C" cx="368.7" cy="582.8" r="92.8"/>
		<circle fill-rule="evenodd" clip-rule="evenodd" fill="#476075" cx="371.3" cy="580.2" r="92.8"/>
	</g>
	<linearGradient id="SVGID_11_" gradientUnits="userSpaceOnUse" x1="432.2872" y1="514.9117" x2="268.5694" y2="690.3228">
		<stop  offset="0" style="stop-color:#FFFFFF"/>
		<stop  offset="1" style="stop-color:#D8E2E9"/>
	</linearGradient>
	<ellipse fill-rule="evenodd" clip-rule="evenodd" fill="url(#SVGID_11_)" cx="372.6" cy="578.9" rx="92.8" ry="92.8"/>
	
		<linearGradient id="SVGID_12_" gradientUnits="userSpaceOnUse" x1="654.9615" y1="-417.071" x2="495.1111" y2="-245.8034" gradientTransform="matrix(-1 0 0 -1 969.2207 224.2969)">
		<stop  offset="0" style="stop-color:#FFFFFF"/>
		<stop  offset="1" style="stop-color:#D8E2E9"/>
	</linearGradient>
	<circle fill-rule="evenodd" clip-rule="evenodd" fill="url(#SVGID_12_)" cx="372.6" cy="578.9" r="90.6"/>
</g>
<g>
	<g opacity="0.4">
		<circle fill-rule="evenodd" clip-rule="evenodd" fill="#FFFFFF" cx="309.7" cy="467.1" r="153.1"/>
		<circle fill-rule="evenodd" clip-rule="evenodd" fill="#F6F7F8" cx="313.9" cy="462.8" r="153.1"/>
		<circle fill-rule="evenodd" clip-rule="evenodd" fill="#EDF0F2" cx="318.2" cy="458.6" r="153.1"/>
		<circle fill-rule="evenodd" clip-rule="evenodd" fill="#E5E8EB" cx="322.5" cy="454.3" r="153.1"/>
		<circle fill-rule="evenodd" clip-rule="evenodd" fill="#DCE1E5" cx="326.8" cy="450" r="153.1"/>
		<circle fill-rule="evenodd" clip-rule="evenodd" fill="#D3D9DE" cx="331" cy="445.7" r="153.1"/>
		<circle fill-rule="evenodd" clip-rule="evenodd" fill="#CAD2D8" cx="335.3" cy="441.5" r="153.1"/>
		<circle fill-rule="evenodd" clip-rule="evenodd" fill="#C2CAD1" cx="339.6" cy="437.2" r="153.1"/>
		<circle fill-rule="evenodd" clip-rule="evenodd" fill="#B9C2CA" cx="343.9" cy="432.9" r="153.1"/>
		<circle fill-rule="evenodd" clip-rule="evenodd" fill="#B0BBC4" cx="348.1" cy="428.6" r="153.1"/>
		<circle fill-rule="evenodd" clip-rule="evenodd" fill="#A7B3BD" cx="352.4" cy="424.3" r="153.1"/>
		<circle fill-rule="evenodd" clip-rule="evenodd" fill="#9FACB7" cx="356.7" cy="420.1" r="153.1"/>
		<circle fill-rule="evenodd" clip-rule="evenodd" fill="#96A4B0" cx="361" cy="415.8" r="153.1"/>
		<circle fill-rule="evenodd" clip-rule="evenodd" fill="#8D9DAA" cx="365.2" cy="411.5" r="153.1"/>
		<circle fill-rule="evenodd" clip-rule="evenodd" fill="#8495A3" cx="369.5" cy="407.2" r="153.1"/>
		<circle fill-rule="evenodd" clip-rule="evenodd" fill="#7C8D9C" cx="373.8" cy="403" r="153.1"/>
		<circle fill-rule="evenodd" clip-rule="evenodd" fill="#738696" cx="378.1" cy="398.7" r="153.1"/>
		<circle fill-rule="evenodd" clip-rule="evenodd" fill="#6A7E8F" cx="382.3" cy="394.4" r="153.1"/>
		<circle fill-rule="evenodd" clip-rule="evenodd" fill="#617789" cx="386.6" cy="390.1" r="153.1"/>
		<circle fill-rule="evenodd" clip-rule="evenodd" fill="#596F82" cx="390.9" cy="385.9" r="153.1"/>
		<circle fill-rule="evenodd" clip-rule="evenodd" fill="#50687C" cx="395.2" cy="381.6" r="153.1"/>
		<circle fill-rule="evenodd" clip-rule="evenodd" fill="#476075" cx="399.4" cy="377.3" r="153.1"/>
	</g>
	<linearGradient id="SVGID_13_" gradientUnits="userSpaceOnUse" x1="500.0232" y1="269.7024" x2="230.0737" y2="558.9326">
		<stop  offset="0" style="stop-color:#FFFFFF"/>
		<stop  offset="1" style="stop-color:#D8E2E9"/>
	</linearGradient>
	<ellipse fill-rule="evenodd" clip-rule="evenodd" fill="url(#SVGID_13_)" cx="401.6" cy="375.2" rx="153.1" ry="153.1"/>
	
		<linearGradient id="SVGID_14_" gradientUnits="userSpaceOnUse" x1="663.8088" y1="-253.915" x2="400.2377" y2="28.4813" gradientTransform="matrix(-1 0 0 -1 969.2207 224.2969)">
		<stop  offset="0" style="stop-color:#FFFFFF"/>
		<stop  offset="1" style="stop-color:#D8E2E9"/>
	</linearGradient>
	<ellipse fill-rule="evenodd" clip-rule="evenodd" fill="url(#SVGID_14_)" cx="401.6" cy="375.2" rx="149.4" ry="149.4"/>
</g>
<g>
	<g opacity="0.4">
		<circle fill-rule="evenodd" clip-rule="evenodd" fill="#FFFFFF" cx="544.5" cy="680.5" r="67.3"/>
		<circle fill-rule="evenodd" clip-rule="evenodd" fill="#F6F7F8" cx="548.5" cy="676.6" r="67.3"/>
		<circle fill-rule="evenodd" clip-rule="evenodd" fill="#EDF0F2" cx="552.4" cy="672.6" r="67.3"/>
		<circle fill-rule="evenodd" clip-rule="evenodd" fill="#E5E8EB" cx="556.4" cy="668.7" r="67.3"/>
		<circle fill-rule="evenodd" clip-rule="evenodd" fill="#DCE1E5" cx="560.3" cy="664.7" r="67.3"/>
		<circle fill-rule="evenodd" clip-rule="evenodd" fill="#D3D9DE" cx="564.3" cy="660.8" r="67.3"/>
		<circle fill-rule="evenodd" clip-rule="evenodd" fill="#CAD2D8" cx="568.2" cy="656.9" r="67.3"/>
		<circle fill-rule="evenodd" clip-rule="evenodd" fill="#C2CAD1" cx="572.1" cy="652.9" r="67.3"/>
		<circle fill-rule="evenodd" clip-rule="evenodd" fill="#B9C2CA" cx="576.1" cy="649" r="67.3"/>
		<circle fill-rule="evenodd" clip-rule="evenodd" fill="#B0BBC4" cx="580" cy="645" r="67.3"/>
		<circle fill-rule="evenodd" clip-rule="evenodd" fill="#A7B3BD" cx="584" cy="641.1" r="67.3"/>
		<circle fill-rule="evenodd" clip-rule="evenodd" fill="#9FACB7" cx="587.9" cy="637.1" r="67.3"/>
		<circle fill-rule="evenodd" clip-rule="evenodd" fill="#96A4B0" cx="591.9" cy="633.2" r="67.3"/>
		<circle fill-rule="evenodd" clip-rule="evenodd" fill="#8D9DAA" cx="595.8" cy="629.2" r="67.3"/>
		<circle fill-rule="evenodd" clip-rule="evenodd" fill="#8495A3" cx="599.8" cy="625.3" r="67.3"/>
		<circle fill-rule="evenodd" clip-rule="evenodd" fill="#7C8D9C" cx="603.7" cy="621.3" r="67.3"/>
		<circle fill-rule="evenodd" clip-rule="evenodd" fill="#738696" cx="607.7" cy="617.4" r="67.3"/>
		<circle fill-rule="evenodd" clip-rule="evenodd" fill="#6A7E8F" cx="611.6" cy="613.5" r="67.3"/>
		<circle fill-rule="evenodd" clip-rule="evenodd" fill="#617789" cx="615.5" cy="609.5" r="67.3"/>
		<ellipse fill-rule="evenodd" clip-rule="evenodd" fill="#596F82" cx="619.5" cy="605.6" rx="67.3" ry="67.3"/>
		<ellipse fill-rule="evenodd" clip-rule="evenodd" fill="#50687C" cx="623.4" cy="601.6" rx="67.3" ry="67.3"/>
		<ellipse fill-rule="evenodd" clip-rule="evenodd" fill="#476075" cx="627.4" cy="597.7" rx="67.3" ry="67.3"/>
	</g>
	<linearGradient id="SVGID_15_" gradientUnits="userSpaceOnUse" x1="671.5928" y1="550.3699" x2="552.9412" y2="677.4961">
		<stop  offset="0" style="stop-color:#FFFFFF"/>
		<stop  offset="1" style="stop-color:#D8E2E9"/>
	</linearGradient>
	<ellipse fill-rule="evenodd" clip-rule="evenodd" fill="url(#SVGID_15_)" cx="628.3" cy="596.7" rx="67.3" ry="67.3"/>
	<circle fill-rule="evenodd" clip-rule="evenodd" fill="#3DC7F4" cx="628.3" cy="596.7" r="65.7"/>
</g>
<g>
	<g opacity="0.4">
		<circle fill-rule="evenodd" clip-rule="evenodd" fill="#FFFFFF" cx="44.2" cy="435.6" r="43.2"/>
		<circle fill-rule="evenodd" clip-rule="evenodd" fill="#F6F7F8" cx="46.6" cy="433.1" r="43.2"/>
		<circle fill-rule="evenodd" clip-rule="evenodd" fill="#EDF0F2" cx="49.1" cy="430.7" r="43.2"/>
		<circle fill-rule="evenodd" clip-rule="evenodd" fill="#E5E8EB" cx="51.6" cy="428.2" r="43.2"/>
		<circle fill-rule="evenodd" clip-rule="evenodd" fill="#DCE1E5" cx="54.1" cy="425.7" r="43.2"/>
		<circle fill-rule="evenodd" clip-rule="evenodd" fill="#D3D9DE" cx="56.6" cy="423.2" r="43.2"/>
		<circle fill-rule="evenodd" clip-rule="evenodd" fill="#CAD2D8" cx="59.1" cy="420.7" r="43.2"/>
		<circle fill-rule="evenodd" clip-rule="evenodd" fill="#C2CAD1" cx="61.6" cy="418.2" r="43.2"/>
		<circle fill-rule="evenodd" clip-rule="evenodd" fill="#B9C2CA" cx="64" cy="415.7" r="43.2"/>
		<circle fill-rule="evenodd" clip-rule="evenodd" fill="#B0BBC4" cx="66.5" cy="413.3" r="43.2"/>
		<circle fill-rule="evenodd" clip-rule="evenodd" fill="#A7B3BD" cx="69" cy="410.8" r="43.2"/>
		<circle fill-rule="evenodd" clip-rule="evenodd" fill="#9FACB7" cx="71.5" cy="408.3" r="43.2"/>
		<circle fill-rule="evenodd" clip-rule="evenodd" fill="#96A4B0" cx="74" cy="405.8" r="43.2"/>
		<circle fill-rule="evenodd" clip-rule="evenodd" fill="#8D9DAA" cx="76.5" cy="403.3" r="43.2"/>
		<circle fill-rule="evenodd" clip-rule="evenodd" fill="#8495A3" cx="79" cy="400.8" r="43.2"/>
		<circle fill-rule="evenodd" clip-rule="evenodd" fill="#7C8D9C" cx="81.4" cy="398.3" r="43.2"/>
		<circle fill-rule="evenodd" clip-rule="evenodd" fill="#738696" cx="83.9" cy="395.8" r="43.2"/>
		<circle fill-rule="evenodd" clip-rule="evenodd" fill="#6A7E8F" cx="86.4" cy="393.4" r="43.2"/>
		<circle fill-rule="evenodd" clip-rule="evenodd" fill="#617789" cx="88.9" cy="390.9" r="43.2"/>
		<circle fill-rule="evenodd" clip-rule="evenodd" fill="#596F82" cx="91.4" cy="388.4" r="43.2"/>
		<circle fill-rule="evenodd" clip-rule="evenodd" fill="#50687C" cx="93.9" cy="385.9" r="43.2"/>
		<circle fill-rule="evenodd" clip-rule="evenodd" fill="#476075" cx="96.4" cy="383.4" r="43.2"/>
	</g>
	<linearGradient id="SVGID_16_" gradientUnits="userSpaceOnUse" x1="124.7589" y1="353.0358" x2="48.5384" y2="434.7002">
		<stop  offset="0" style="stop-color:#FFFFFF"/>
		<stop  offset="1" style="stop-color:#D8E2E9"/>
	</linearGradient>
	<circle fill-rule="evenodd" clip-rule="evenodd" fill="url(#SVGID_16_)" cx="97" cy="382.8" r="43.2"/>
	<circle fill-rule="evenodd" clip-rule="evenodd" fill="#F8991D" cx="97" cy="382.8" r="42.2"/>
</g>
</svg>
