<?xml version="1.0" encoding="utf-8"?>
<!-- Generator: Adobe Illustrator 20.1.0, SVG Export Plug-In . SVG Version: 6.00 Build 0)  -->
<svg version="1.1" id="Layer_1" xmlns="http://www.w3.org/2000/svg" xmlns:xlink="http://www.w3.org/1999/xlink" x="0px" y="0px"
	 viewBox="0 0 568.9 568.9" enable-background="new 0 0 568.9 568.9" xml:space="preserve">
<g>
	<linearGradient id="SVGID_1_" gradientUnits="userSpaceOnUse" x1="287.565" y1="24.3256" x2="285.8864" y2="563.1343">
		<stop  offset="0" style="stop-color:#2483C5"/>
		<stop  offset="0.2031" style="stop-color:#237CC0"/>
		<stop  offset="0.5008" style="stop-color:#2268B0"/>
		<stop  offset="0.8549" style="stop-color:#1F4898"/>
		<stop  offset="1" style="stop-color:#1E398C"/>
	</linearGradient>
	<path fill="url(#SVGID_1_)" d="M286.7,62.5c-128.2,0-232.6,104.3-232.6,232.6c0,120.7,92.4,220.2,210.1,231.5
		c0-15.2,0-132.3,0-148.6l-53.9-52.3v-71.9c9.3-2.7,16.1-11.2,16.1-21.4c0-29.4-44.5-29.4-44.5,0c0,10.1,6.8,18.7,16.1,21.4v36.4
		l-22.8-17.3v-62.1c24.4-7.3,19.1-43.6-6.4-43.6c-25.7,0-30.8,36.8-5.9,43.7v68.2l35.2,26.6v25.3l11.3,11h-33.2l-35.3-34.3
		c9.7-14.7-0.9-34.5-18.6-34.5c-35.7,0-24.3,57.6,9.1,42.5l39.7,38.6h50.9l29.8,29c0,15.2,0,116,0,129.3
		C147.3,495.9,66.5,405,66.5,295.1c0-121.4,98.8-220.2,220.2-220.2c121.4,0,220.2,98.8,220.2,220.2c0,112.7-85.1,206-194.6,218.7
		V500c101.6-12.7,180.9-99.6,180.9-204.9c0-113.9-92.6-206.5-206.5-206.5c-113.9,0-206.5,92.6-206.5,206.5
		c0,97.7,68.2,179.7,159.4,201.1v-11.3c-85.1-21.1-148.4-98.2-148.4-189.8c0-107.8,87.7-195.6,195.6-195.6
		c107.8,0,195.6,87.7,195.6,195.6c0,99.2-74.3,181.3-169.9,193.9c0-43.7,0-79.6,0-100.7l3.3-2.5h36.8l57.8-30.7
		c13.9,14.1,38.1,4.3,38.1-15.6c0-32.7-50.9-27.1-44,4.7l-55,29.3H332l100.2-75.6v-71.3c24.6-7.1,19.5-43.6-6.2-43.6
		c-25.7,0-30.7,36.5-6.2,43.6v65.1l-76,57.4v-42.6l39-28.1v-30.8c24.6-7.1,19.5-43.6-6.2-43.6c-25.7,0-30.7,36.5-6.2,43.6v24.4
		l-39,28.1v58.2l-31.5,23.8c0,16.5,0,128.9,0,145.2c122.1-7,219.2-108.5,219.2-232.2C519.3,166.9,415,62.5,286.7,62.5z M163.4,181.2
		c4.1-2.5,9.1-2.1,12.6,1.3c5.1,4.9,3.5,15.7-5.9,16.8C157.7,199.3,155.9,186.1,163.4,181.2z M115.3,302.5c-5.9-6.1-2.2-17,7.1-17
		c5.7,0,9.9,4.2,9.9,9.9C132.3,304.7,121.4,308.4,115.3,302.5z M194.3,232.4c0-13.1,19.8-13.1,19.8,0
		C214.2,245.5,194.3,245.5,194.3,232.4z M426.1,329.6c5.7,0,9.9,4.2,9.9,9.9c0,5.7-4.3,9.9-9.9,9.9c-5.6,0-9.9-4.2-9.9-9.9
		C416.2,333.8,420.4,329.6,426.1,329.6z M426.1,195.3c13.2,0,13.2,19.6,0,19.6C412.8,215,412.8,195.3,426.1,195.3z M376.8,216.4
		c13.1,0,13.1,19.8,0,19.8C363.7,236.2,363.7,216.4,376.8,216.4z"/>
	<linearGradient id="SVGID_2_" gradientUnits="userSpaceOnUse" x1="293.6707" y1="-52.3137" x2="280.5999" y2="601.2636">
		<stop  offset="0" style="stop-color:#FFC939"/>
		<stop  offset="0.1459" style="stop-color:#FCBD37"/>
		<stop  offset="0.4103" style="stop-color:#F69D32"/>
		<stop  offset="0.7607" style="stop-color:#EA692A"/>
		<stop  offset="1" style="stop-color:#E24224"/>
	</linearGradient>
	<path fill="url(#SVGID_2_)" d="M286.7,39.5c-141,0-255.6,114.7-255.6,255.6c0,155.5,138.6,276,293.6,252.8
		c123-18.4,217.6-124.8,217.6-252.8C542.3,154.2,427.7,39.5,286.7,39.5z M288.1,539.5c0-27.9,0-189.4,0-213.1l31.1-29.7v-93.4
		l30.1-32.9c33.4,14.1,43.9-42.7,8.6-42.7c-17.9,0-28.5,20.3-18.2,35l-32.8,35.9v93l-31.1,29.7v8.7l-21.7-20.6v-47.9l0.4,0.5
		l39.8-32.6v-70c22.5-9.2,15.9-42.8-8.4-42.8c-12.3,0-22.2,10-22.2,22.2c0,10.9,7.9,20,18.3,21.9v62.9l-27.8,22.8v-45.5
		c8.4-3.2,14.4-11.3,14.4-20.8c0-29.4-44.5-29.4-44.5,0c0,10.7,7.6,19.7,17.8,21.8v112.9l34,32.3c0,20.6,0,172.7,0,192.5
		c-129.7-5.7-233.5-113-233.5-244.2c0-134.8,109.7-244.5,244.5-244.5c134.8,0,244.5,109.7,244.5,244.5
		C531.2,429.4,422.3,538.8,288.1,539.5z M358,140c16.3,0,10.5,26-4.3,18.8l-4.1-3.8C345.4,148.2,350.4,140,358,140z M249.9,189h-7.4
		c-9.6-3.9-7.9-19,3.7-19C257.8,170,259.5,185.1,249.9,189z M285.9,148.4c-5.5,0-9.9-4.4-9.9-9.9c0-5.5,4.4-9.9,9.9-9.9
		c5.5,0,9.9,4.4,9.9,9.9C295.8,144,291.4,148.4,285.9,148.4z"/>
</g>
</svg>
