<?xml version="1.0" encoding="utf-8"?>
<!-- Generator: Adobe Illustrator 20.1.0, SVG Export Plug-In . SVG Version: 6.00 Build 0)  -->
<svg version="1.1" id="Layer_1" xmlns="http://www.w3.org/2000/svg" xmlns:xlink="http://www.w3.org/1999/xlink" x="0px" y="0px"
	 viewBox="0 0 1800 1800" enable-background="new 0 0 1800 1800" xml:space="preserve">
<g>
	<g>
		<g>
			<polygon fill="#EFEDED" points="431.9,1362 443.7,1379 447.6,1376.3 447.6,1351 			"/>
			<polygon fill="#EFEDED" points="1343.2,1219.1 1331.2,1202.2 1327.2,1205 1327.2,1230.5 			"/>
		</g>
		<path fill="#BFBEBE" d="M903,1021c0,8.7-7,15.7-15.7,15.7c-8.6,0-15.7-7-15.7-15.7c0-8.7,7-15.7,15.7-15.7
			C896,1005.4,903,1012.4,903,1021z"/>
	</g>
	<polygon fill="#7FBFC8" points="1320,1041.8 447.6,1041.8 447.6,1557.9 447.6,1558.2 1327.2,1558.2 1327.2,1041.8 	"/>
</g>
<g>
	<rect x="447.7" y="1041.8" fill="none" width="439.8" height="516.3"/>
	<rect x="887.5" y="1041.8" fill="none" width="439.8" height="516.3"/>
	<path fill="#17587C" d="M744.9,1661.9c-8.7,0-15.7-7-15.7-15.7c0-8.7,7-15.7,15.7-15.7h142.6v-17.9H345.9c0,0.1,0,0.3,0,0.4
		c0,36.9,18.9,66.8,42.2,66.8h499.5v-17.9H744.9z"/>
	<path fill="#0C3854" d="M887.5,1612.7v17.9h142.6c8.7,0,15.7,7,15.7,15.7c0,8.7-7,15.7-15.7,15.7H887.5v17.9H1387
		c23.3,0,42.2-29.9,42.2-66.8c0-0.1,0-0.3,0-0.4H887.5z"/>
	<path fill="#FFFFFF" d="M729.3,1646.2c0,8.7,7,15.7,15.7,15.7h142.6v-31.3H744.9C736.3,1630.6,729.3,1637.6,729.3,1646.2z"/>
	<path fill="#DEF1F3" d="M1030.1,1661.9c8.7,0,15.7-7,15.7-15.7c0-8.7-7-15.7-15.7-15.7H887.5v31.3H1030.1z"/>
	<path fill="#0C3854" d="M1374.6,1537.4v-474.7c0-34.3-25.2-62.2-56.2-62.2H887.5v41.3h439.8v516.3H887.5v41.3h430.9
		C1349.4,1599.5,1374.6,1571.7,1374.6,1537.4z"/>
	<path fill="#17587C" d="M447.7,1558.2v-516.3h439.8v-41.3H456.7c-31,0-56.2,27.8-56.2,62.2v474.7c0,34.3,25.2,62.2,56.2,62.2h430.8
		v-41.3H447.7z"/>
</g>
<path fill="#CAE8EA" d="M942.9,846.7h-51.5h-1.8h-51.5c0,0,58.3,139.4-50.2,705l82.2,2.3l33.2,1.3l83.9,3.8
	C878.6,993.4,942.9,846.7,942.9,846.7z"/>
<path fill="#FFFFFF" d="M903.5,820.8l-19.2,2.5v-3l-17.7-4c0,0,29.4,619.8-44.6,714.7l3.4,20.6l54,5.1l9.8-2.5l52,0.8l11.9-2.9
	C879.1,1457.3,903.5,820.8,903.5,820.8z"/>
<g>
	<path fill="#F27F21" d="M973.2,747.8c0,60.3-85.4,187.9-85.4,187.9s-85.4-127.6-85.4-187.9c0-60.3,38.2-76.9,85.4-76.9
		C935,670.9,973.2,687.5,973.2,747.8z"/>
	<path fill="#EEB420" d="M946.8,735.9c0,41.6-59,144.1-59,144.1s-59-102.4-59-144.1c0-41.6,26.4-53,59-53
		C920.4,682.8,946.8,694.3,946.8,735.9z"/>
	<path fill="#F7CB6C" d="M922,715.9c0,24.1-34.2,103-34.2,103s-34.2-78.9-34.2-103c0-24.1,15.3-30.7,34.2-30.7
		C906.7,685.2,922,691.8,922,715.9z"/>
	<g>
		<g>
			<path fill="#EA3859" d="M818.1,532c0,0-117.6,61.8-117.6,195.6c0,0,7.4,14.7,19.1-2.9c11.8-17.6,22.1-66.2,97-66.2L818.1,532z"/>
			<path fill="#BC3548" d="M956.9,532c0,0,117.6,61.8,117.6,195.6c0,0-7.4,14.7-19.1-2.9c-11.8-17.6-22.1-66.2-97-66.2L956.9,532z"
				/>
		</g>
		<g>
			<path fill="#0C3854" d="M1018.1,402c0-54.8-9.3-106.4-23-151.5H887.5v45.8c39.8,0,72.1,32.3,72.1,72.1
				c0,39.8-32.3,72.1-72.1,72.1V672h70.4C994.1,615,1018.1,515.4,1018.1,402z"/>
			<path fill="#17587C" d="M815.5,368.4c0-39.8,32.3-72.1,72.1-72.1v-45.8H780c-13.8,45.1-23,96.7-23,151.5c0,113.4,24,213,60.2,270
				h70.4V440.4C847.7,440.4,815.5,408.2,815.5,368.4z"/>
			<path fill="#E7C637" d="M818.1,672.2c-1.8,0-3.3,1.5-3.3,3.3v15.4c0,1.8,1.5,3.3,3.3,3.3h69.4v-22H818.1z"/>
			<path fill="#CDAE2F" d="M956.9,672.2h-69.3v22h69.3c1.8,0,3.3-1.5,3.3-3.3v-15.4C960.1,673.7,958.7,672.2,956.9,672.2z"/>
			<path fill="#CDAE2F" d="M936.9,368.4c0,27.3-22.1,49.4-49.4,49.4v22.7c39.8,0,72.1-32.3,72.1-72.1c0-39.8-32.3-72.1-72.1-72.1
				V319C914.8,319,936.9,341.1,936.9,368.4z"/>
			<path fill="#E7C637" d="M815.5,368.4c0,39.8,32.3,72.1,72.1,72.1v-22.7c-27.3,0-49.4-22.1-49.4-49.4c0-27.3,22.1-49.4,49.4-49.4
				v-22.7C847.7,296.3,815.5,328.6,815.5,368.4z"/>
			<path fill="#83D0D1" d="M936.9,368.4c0-27.3-22.1-49.4-49.4-49.4v98.7C914.8,417.7,936.9,395.6,936.9,368.4z"/>
			<path fill="#A5DCE3" d="M838.2,368.4c0,27.3,22.1,49.4,49.4,49.4V319C860.3,319,838.2,341.1,838.2,368.4z"/>
		</g>
	</g>
	<g>
		<path fill="#BC3548" d="M887.5,81.5v169h107.6C964.3,149.9,911,81.5,887.5,81.5z"/>
		<path fill="#EA3859" d="M887.5,81.5c-23.5,0-76.8,68.4-107.6,169h107.6V81.5L887.5,81.5z"/>
		<path fill="#BC3548" d="M892.1,568.6c-0.4-0.1-0.7-0.2-1.1-0.2h-0.1h-3.3v165h3.7h0.1c2.1,0,3.8-1.7,3.8-3.8v-5l0.1-7.2
			l10.4-132.7C905.6,571.3,894.3,569.2,892.1,568.6z"/>
		<path fill="#EA3859" d="M883.8,568.5L883.8,568.5c-0.5,0-0.9,0.1-1.2,0.2c-0.7,0.2-1.4,0.5-2.1,0.9c-4.1,1.3-11.1,4.9-11.1,15.5
			l10.4,132.9l0.1,6.7v5c0,1.6,1,2.9,2.3,3.5c0.5,0.3,1.2,0.5,1.8,0.5h0.1h3.3v-165H883.8z"/>
	</g>
</g>
<g>
	<path fill="#CAE8EA" d="M1220.2,1331.1c-14.2-4.2-29.7-4.5-45.5-0.2c-49.8,13.6-83,68.3-74,122.2c0.2,1.4,0.5,2.8,0.8,4.2l-0.3,0.1
		c-23.3,6.3-42.3,23.2-53.5,44.7c-8.5,16.3-12.5,35.3-10.5,54.4l95.1-26l195.9-53.5v-250.3c-2.7,0.6-5.5,1.2-8.2,1.9
		C1271.8,1241.7,1234.6,1282.3,1220.2,1331.1z"/>
	<g>
		<path fill="#FFFFFF" d="M1170.6,1440.2c-13.2-7.9-28.3-12.3-44.5-12.3c-51,0-92.2,44.6-92.2,99.7c0,0.2,0,0.5,0,0.7
			c10.1,8.5,19.2,18.4,26.9,29.3h267.6v-183c-13.6-5.2-28.2-8-43.4-8C1235.5,1366.6,1192.6,1396.4,1170.6,1440.2z"/>
		<path fill="#CAE8EA" d="M1033.9,1528.3c-13.2-11.1-28.4-19.8-45-25.3c-47.8-15.8-95.2-0.7-125,34.7c-11.2-11.8-25.1-21-40.7-26.2
			c-8-2.7-16-4.1-23.9-4.4c11,13.7,18,31.2,19.1,50.4h158.9h83.5C1053,1546.7,1044,1536.8,1033.9,1528.3z"/>
		<path fill="#FFFFFF" d="M799.3,1507.3c-14.4-18-35.8-29.4-59.5-29.4h-0.3c0.1-1.4,0.1-2.9,0.1-4.3c0-55.1-41.3-99.7-92.3-99.7
			c-16.1,0-31.3,4.5-44.5,12.3c-22-43.8-65-73.6-114.3-73.6c-14.6,0-28.6,2.6-41.8,7.4v237.7h274.4h97.2
			C817.3,1538.4,810.3,1520.9,799.3,1507.3z"/>
	</g>
	<path fill="#CAE8EA" d="M709.1,1531c-17.1-13.6-39.9-18.8-63.1-12.2l-0.3,0.1c-0.2-1.4-0.4-2.8-0.6-4.3
		c-9.3-53.8-57.1-85.9-106.9-71.8c-15.7,4.5-29.8,13-41.3,24.4c-13.4-17-30.6-29.8-50.1-37.3v127.8h283.4
		C725,1546.9,717.8,1537.9,709.1,1531z"/>
</g>
<g>
	<g>
		<path fill="#17587C" d="M982,1493.9c0-10.3-8.3-18.6-18.6-18.6H813.9c-10.3,0-18.6,8.3-18.6,18.6v19.8H982V1493.9z"/>
		<path fill="#0C3854" d="M795.3,1513.7v19.8c0,10.3,8.3,18.6,18.6,18.6h149.5c10.3,0,18.6-8.3,18.6-18.6v-19.8H795.3z"/>
	</g>
	<g>
		<path fill="#FFFFFF" d="M818.7,1523.2c2.1,1.1,5.4,2.2,8.8,2.2c3.7,0,5.6-1.5,5.6-3.8c0-2.2-1.7-3.5-5.9-5
			c-5.9-2-9.7-5.3-9.7-10.4c0-6,5-10.6,13.3-10.6c4,0,6.9,0.8,9,1.8l-1.8,6.4c-1.4-0.7-3.9-1.7-7.4-1.7c-3.5,0-5.1,1.6-5.1,3.4
			c0,2.3,2,3.2,6.5,5c6.2,2.3,9.2,5.5,9.2,10.5c0,5.9-4.6,10.9-14.2,10.9c-4,0-8-1-10-2.1L818.7,1523.2z"/>
		<path fill="#FFFFFF" d="M853.5,1502.8h-9.5v-6.7h27.1v6.7h-9.6v28.6h-8V1502.8z"/>
		<path fill="#FFFFFF" d="M879.9,1522.3l-2.5,9.1h-8.3l10.8-35.3h10.5l10.9,35.3h-8.6l-2.7-9.1H879.9z M888.8,1516.3l-2.2-7.5
			c-0.6-2.1-1.3-4.7-1.8-6.8h-0.1c-0.5,2.1-1,4.8-1.6,6.8l-2.1,7.5H888.8z"/>
		<path fill="#FFFFFF" d="M906,1496.6c2.6-0.4,6.4-0.7,10.6-0.7c5.2,0,8.9,0.8,11.4,2.8c2.1,1.7,3.2,4.1,3.2,7.4
			c0,4.5-3.2,7.6-6.2,8.7v0.2c2.5,1,3.8,3.4,4.7,6.6c1.1,4,2.2,8.6,2.9,9.9h-8.2c-0.6-1-1.4-3.9-2.5-8.2c-0.9-4.4-2.5-5.6-5.7-5.7
			h-2.4v13.9H906V1496.6z M913.9,1511.7h3.1c4,0,6.3-2,6.3-5.1c0-3.2-2.2-4.9-5.9-4.9c-1.9,0-3,0.2-3.6,0.3V1511.7z"/>
		<path fill="#FFFFFF" d="M943.8,1502.8h-9.5v-6.7h27.1v6.7h-9.6v28.6h-8V1502.8z"/>
	</g>
</g>
</svg>
