<?xml version="1.0" encoding="utf-8"?>
<!-- Generator: Adobe Illustrator 20.1.0, SVG Export Plug-In . SVG Version: 6.00 Build 0)  -->
<svg version="1.1" id="Слой_1" xmlns="http://www.w3.org/2000/svg" xmlns:xlink="http://www.w3.org/1999/xlink" x="0px" y="0px"
	 viewBox="0 0 607.3 551.3" enable-background="new 0 0 607.3 551.3" xml:space="preserve">
<g>
	<path fill="#53BB9B" d="M504.2,19.5c0-7.4-6-13.4-13.4-13.5c-7.4,0-13.4,6-13.5,13.4c0,3,1,5.9,2.9,8.3c1.3,1.7,2.6,3.5,3.7,5.3
		l0,8.2c0,0.7,0.6,1.3,1.3,1.3l1.5,0v0.6c0,1.6,1.3,2.8,2.8,2.8l2.3,0c1.6,0,2.8-1.3,2.8-2.8l0-0.7l1.5,0c0.7,0,1.3-0.6,1.3-1.3
		l0-8.2c1.1-1.8,2.3-3.6,3.7-5.3C503.2,25.4,504.2,22.6,504.2,19.5L504.2,19.5z M488.8,31.4l-2.3-10.1l1.4-0.9l1.7,1.6
		c0.1,0.1,0.3,0.2,0.5,0.2c0.2,0,0.4-0.1,0.5-0.2l1.5-1.8l0.9,1.7c0.1,0.2,0.4,0.4,0.6,0.4c0.1,0,0.2,0,0.3-0.1l1.1-0.5l-2.2,9.7
		L488.8,31.4z M494.9,34.1l0,2.3l-8.4,0l0-2.3L494.9,34.1z M486.5,39.9l0-2.3l8.4,0l0,2.3L486.5,39.9z M495.5,31.4l-0.8,0l2.6-11.1
		c0.1-0.5-0.2-1.1-0.8-1.2c-0.5-0.1-1.1,0.2-1.2,0.8l-0.1,0.2l-1.4,0.6l-1-2.1c-0.1-0.2-0.3-0.3-0.5-0.4c-0.2,0-0.4,0.1-0.6,0.2
		l-1.7,2.1l-1.6-1.5c-0.2-0.2-0.6-0.2-0.8-0.1l-1.4,0.9l0,0c-0.1-0.5-0.7-0.9-1.2-0.8c-0.5,0.1-0.9,0.7-0.8,1.2l2.5,11.1l-0.8,0
		c-1.1-1.8-2.3-3.6-3.7-5.3c-1.5-1.9-2.3-4.2-2.3-6.6c0-5.9,4.8-10.7,10.8-10.7c5.9,0,10.7,4.8,10.7,10.8c0,2.4-0.8,4.7-2.3,6.6
		C497.9,27.8,496.6,29.6,495.5,31.4L495.5,31.4z M495.5,31.4"/>
</g>
<g>
	<path fill="#F04946" d="M109.5,523.9c0.1,0.1,0.3,0.2,0.4,0.2h18.7c0.2,0,0.3-0.1,0.5-0.2c0.1-0.1,0.2-0.3,0.2-0.5
		c-0.5-5-2.9-9.6-6.6-13c-3.7-3.3-8.6-5.2-13.6-5.2c-4.6,0-9.1,1.6-12.7,4.5c-0.1,0.1-0.2,0.3-0.2,0.5c0,0.2,0.1,0.3,0.2,0.5
		L109.5,523.9z M107,516.8l5.4-8c0.6,0.1,1.2,0.3,1.8,0.5l-5.9,8.8L107,516.8z M109.1,508.5c0.2,0,0.3,0,0.5,0l-4.4,6.5l-1.4-1.4
		l3.5-5C107.9,508.6,108.5,508.5,109.1,508.5L109.1,508.5z M103.7,509.4l-1.7,2.4l-1.2-1.2c0.8-0.4,1.6-0.8,2.4-1.1
		C103.4,509.5,103.5,509.4,103.7,509.4L103.7,509.4z M119.6,520.9l3.4-5.1c0.2,0.3,0.5,0.7,0.7,1l-2.8,4.1H119.6z M123.9,520.9
		l1.1-1.6c0.2,0.5,0.4,1,0.5,1.6H123.9z M114.6,520.9l5.5-8.3c0.2,0.1,0.3,0.3,0.5,0.4c0.2,0.2,0.5,0.5,0.7,0.7l-4.7,7.1H114.6z
		 M111.6,520.9h-0.5l-0.9-0.9l6.4-9.7c0.5,0.3,1,0.5,1.5,0.8L111.6,520.9z M111.6,520.9"/>
	<path fill="#F04946" d="M106.9,525.5l-12.7-12.7c-0.1-0.1-0.3-0.2-0.5-0.2c-0.2,0-0.3,0.1-0.5,0.2c-2.9,3.6-4.5,8.1-4.5,12.7
		c0,6.3,2.9,12.2,7.9,16.1c0.1,0.1,0.2,0.1,0.4,0.1c0,0,0.1,0,0.1,0c0.2,0,0.3-0.1,0.4-0.3l9.4-15.3
		C107.1,526,107.1,525.7,106.9,525.5L106.9,525.5z M103.1,526.3l-6.6,10.8c-1-1.1-1.9-2.4-2.6-3.7c-1.2-2.4-1.9-5-1.9-7.7
		c0-2,0.4-4,1-5.9c0.3-0.8,0.7-1.6,1.1-2.4L103.1,526.3z M103.1,526.3"/>
	<path fill="#F04946" d="M128.7,527.1h-18.4c-0.2,0-0.4,0.1-0.5,0.3l-9.6,15.7c-0.1,0.2-0.1,0.3-0.1,0.5c0,0.2,0.2,0.3,0.3,0.4
		c2.7,1.3,5.7,2,8.7,2c5.1,0,9.9-1.8,13.6-5.2c3.7-3.3,6.1-7.9,6.6-13c0-0.2,0-0.4-0.2-0.5C129,527.2,128.9,527.1,128.7,527.1
		L128.7,527.1z M128.7,527.1"/>
</g>
<g>
	<path fill="#348EA9" d="M91.5,20.7c0.2,0.7,0.5,1.4,0.9,2.1l-1.1,1.3c-0.3,0.4-0.3,1.1,0.1,1.5l1.8,1.8c0.4,0.4,1,0.4,1.5,0.1
		l1.3-1.1c0.7,0.4,1.4,0.7,2.2,0.9l0.2,1.7c0.1,0.6,0.5,1,1.1,1h2.6c0.6,0,1-0.4,1.1-1l0.2-1.7c0.8-0.2,1.6-0.5,2.3-0.9l1.3,1
		c0.4,0.3,1.1,0.3,1.5-0.1l1.8-1.8c0.4-0.4,0.4-1,0.1-1.5l-1-1.3c0.4-0.7,0.7-1.5,1-2.3l1.5-0.2c0.6-0.1,1-0.5,1-1.1v-2.6
		c0-0.6-0.4-1-1-1.1l-1.5-0.2c-0.2-0.8-0.5-1.6-0.9-2.3l0.9-1.2c0.3-0.4,0.3-1.1-0.1-1.5l-1.8-1.8c-0.4-0.4-1-0.4-1.5-0.1l-1.2,0.9
		c-0.7-0.4-1.5-0.8-2.4-1L103.3,7c-0.1-0.6-0.5-1-1.1-1h-2.6c-0.6,0-1,0.4-1.1,1l-0.2,1.5c-0.9,0.2-1.7,0.6-2.4,1l-1.2-0.9
		c-0.4-0.3-1.1-0.3-1.5,0.1l-1.8,1.8c-0.4,0.4-0.4,1-0.1,1.5l1,1.3c-0.4,0.7-0.7,1.5-0.9,2.3l-1.6,0.2c-0.6,0.1-1,0.5-1,1.1v2.6
		c0,0.6,0.4,1,1,1.1L91.5,20.7z M100.9,13.7c2.4,0,4.3,1.9,4.3,4.3c0,2.4-1.9,4.3-4.3,4.3c-2.4,0-4.3-1.9-4.3-4.3
		C96.6,15.6,98.5,13.7,100.9,13.7L100.9,13.7z M100.9,13.7"/>
	<path fill="#348EA9" d="M126.5,21.3l-1.4-1.2c-0.4-0.4-1-0.3-1.4,0l-0.8,0.7c-0.6-0.3-1.3-0.5-2-0.7l-0.2-1
		c-0.1-0.5-0.6-0.9-1.2-0.9l-1.8,0.2c-0.5,0-1,0.5-1,1l0,1.1c-0.7,0.2-1.3,0.6-1.9,1l-0.9-0.6c-0.5-0.3-1.1-0.2-1.4,0.2l-1.2,1.4
		c-0.4,0.4-0.3,1,0,1.4l0.8,0.8c-0.3,0.6-0.5,1.3-0.6,1.9l-1.1,0.2c-0.5,0.1-0.9,0.6-0.9,1.2l0.2,1.8c0,0.5,0.5,1,1,1l1.2,0
		c0.2,0.6,0.5,1.1,0.9,1.6l-0.7,1c-0.3,0.5-0.2,1.1,0.2,1.4l1.4,1.2c0.4,0.4,1,0.3,1.4,0l0.9-0.8c0.6,0.3,1.2,0.5,1.8,0.6l0.2,1.2
		c0.1,0.5,0.6,0.9,1.2,0.9l1.8-0.2c0.5,0,1-0.5,1-1l0-1.2c0.6-0.2,1.3-0.5,1.8-0.9l1,0.7c0.5,0.3,1.1,0.2,1.4-0.2l1.2-1.4
		c0.4-0.4,0.3-1,0-1.4l-0.8-0.8c0.3-0.6,0.5-1.3,0.6-1.9l1.1-0.2c0.5-0.1,0.9-0.6,0.9-1.2l-0.2-1.8c0-0.5-0.5-1-1-1l-1.1,0
		c-0.2-0.6-0.5-1.2-0.9-1.8l0.6-0.9C127,22.3,126.9,21.7,126.5,21.3L126.5,21.3z M119.8,31.6c-1.9,0.2-3.6-1.3-3.8-3.2
		c-0.2-1.9,1.3-3.6,3.2-3.8c1.9-0.2,3.6,1.3,3.8,3.2C123.2,29.8,121.7,31.5,119.8,31.6L119.8,31.6z M119.8,31.6"/>
	<path fill="#348EA9" d="M97.8,36.4c-0.5,0.1-1,0.5-1,1.1l0,1.1c0,0.6,0.4,1,0.9,1.1l0.8,0.1c0.1,0.5,0.3,1,0.6,1.4l-0.5,0.6
		c-0.3,0.4-0.3,1,0.1,1.4l0.8,0.8c0.4,0.4,1,0.4,1.4,0.1l0.6-0.5c0.5,0.3,0.9,0.5,1.4,0.6l0.1,0.8c0.1,0.5,0.5,1,1.1,1l1.1,0
		c0.6,0,1-0.4,1.1-0.9l0.1-0.8c0.5-0.1,1.1-0.3,1.6-0.6l0.6,0.5c0.4,0.3,1,0.3,1.4-0.1l0.8-0.8c0.4-0.4,0.4-1,0.1-1.4l-0.5-0.6
		c0.3-0.5,0.5-1,0.7-1.5l0.7-0.1c0.5-0.1,1-0.5,1-1.1l0-1.1c0-0.6-0.4-1-0.9-1.1l-0.7-0.1c-0.1-0.5-0.3-1-0.6-1.5l0.4-0.5
		c0.3-0.4,0.3-1-0.1-1.4l-0.8-0.8c-0.4-0.4-1-0.4-1.4-0.1l-0.5,0.4c-0.5-0.3-1-0.5-1.6-0.7l-0.1-0.7c-0.1-0.5-0.5-1-1.1-1l-1.1,0
		c-0.6,0-1,0.4-1.1,0.9l-0.1,0.7c-0.6,0.1-1.1,0.4-1.6,0.7L101,32c-0.4-0.3-1-0.3-1.4,0.1l-0.8,0.8c-0.4,0.4-0.4,1-0.1,1.4l0.5,0.6
		c-0.3,0.5-0.5,1-0.6,1.5L97.8,36.4z M104.8,35.2c1.6,0,2.8,1.3,2.8,2.9c0,1.6-1.3,2.8-2.9,2.8c-1.6,0-2.8-1.3-2.8-2.9
		C102,36.4,103.3,35.2,104.8,35.2L104.8,35.2z M104.8,35.2"/>
</g>
<text transform="matrix(1 0 0 1 4.3614 41.9472)" fill="#333333" font-family="'BebasNeueRegular'" font-size="47.2598px">75%</text>
<text transform="matrix(1 0 0 1 518.4518 41.9472)" fill="#333333" font-family="'BebasNeueRegular'" font-size="47.2598px">50%</text>
<text transform="matrix(1 0 0 1 4.3614 489.5868)" fill="#333333" font-family="'BebasNeueRegular'" font-size="47.2598px">63%</text>
<g>
	<g>
		
			<rect x="112.4" y="53.6" transform="matrix(0.7071 -0.7071 0.7071 0.7071 -25.3607 107.5895)" fill="#348EA9" width="9.6" height="61.6"/>
	</g>
	<g>
		<g>
			
				<ellipse transform="matrix(0.7071 -0.7071 0.7071 0.7071 -16.4912 86.1774)" fill="#348EA9" cx="95.8" cy="63" rx="10.8" ry="10.8"/>
		</g>
	</g>
</g>
<g>
	<g>
		
			<rect x="433" y="99.9" transform="matrix(0.7071 -0.7072 0.7072 0.7071 61.8236 358.7026)" fill="#53BB9B" width="61.6" height="9.6"/>
	</g>
	<g>
		<g>
			
				<ellipse transform="matrix(0.7071 -0.7071 0.7071 0.7071 83.203 367.5221)" fill="#53BB9B" cx="485.3" cy="83.3" rx="10.8" ry="10.8"/>
		</g>
	</g>
</g>
<g>
	<path fill="#348EA9" d="M300.7,513.9c-65.1,0-126.4-25.4-172.4-71.4c-46.1-46.1-71.4-107.3-71.4-172.4s25.4-126.4,71.4-172.4
		c46.1-46.1,107.3-71.4,172.4-71.4c6.1,0,11.1,5,11.1,11.1c0,6.1-5,11.1-11.1,11.1c-59.2,0-114.9,23.1-156.8,64.9
		C102,155.2,79,210.8,79,270.1S102,385,143.9,426.8c41.9,41.9,97.5,64.9,156.8,64.9c59.2,0,114.9-23.1,156.8-64.9
		c41.9-41.9,64.9-97.5,64.9-156.8c0-6.1,5-11.1,11.1-11.1c6.1,0,11.1,5,11.1,11.1c0,65.1-25.4,126.4-71.4,172.4
		C427,488.5,365.8,513.9,300.7,513.9z"/>
</g>
<g>
	<path fill="#53BB9B" d="M441.8,422.3c-2.8,0-5.7-1.1-7.8-3.2c-4.3-4.3-4.3-11.3,0-15.6c35.6-35.6,55.2-82.9,55.2-133.3
		c0-50.4-19.6-97.7-55.2-133.3c-35.6-35.6-82.9-55.2-133.3-55.2c-50.4,0-97.7,19.6-133.3,55.2c-4.3,4.3-11.3,4.3-15.6,0
		s-4.3-11.3,0-15.6c39.8-39.8,92.7-61.7,148.9-61.7c56.3,0,109.2,21.9,148.9,61.7c39.8,39.8,61.7,92.7,61.7,148.9
		S489.4,379.2,449.6,419C447.5,421.2,444.6,422.3,441.8,422.3z"/>
</g>
<g>
	<path fill="#F04946" d="M300.7,447.5c-47.4,0-92-18.5-125.5-52c-33.5-33.5-52-78.1-52-125.5c0-47.3,18.4-91.9,51.9-125.4
		c4.3-4.3,11.3-4.3,15.6,0c4.3,4.3,4.3,11.3,0,15.6c-29.3,29.3-45.4,68.3-45.4,109.7c0,85.6,69.7,155.3,155.3,155.3
		c85.6,0,155.3-69.7,155.3-155.3c0-6.1,5-11.1,11.1-11.1c6.1,0,11.1,5,11.1,11.1c0,47.4-18.5,92-52,125.5
		C392.6,429.1,348.1,447.5,300.7,447.5z"/>
</g>
<g>
	<g>
		<g>
			<circle fill="#F9AE3B" cx="300.7" cy="270.1" r="117.8"/>
		</g>
		<defs>
			<filter id="Adobe_OpacityMaskFilter" filterUnits="userSpaceOnUse" x="182.9" y="152.3" width="235.5" height="235.5">
				
					<feColorMatrix  type="matrix" values="-1 0 0 0 1  0 -1 0 0 1  0 0 -1 0 1  0 0 0 1 0" color-interpolation-filters="sRGB" result="source"/>
			</filter>
		</defs>
		<mask maskUnits="userSpaceOnUse" x="182.9" y="152.3" width="235.5" height="235.5" id="SVGID_1_">
			<g filter="url(#Adobe_OpacityMaskFilter)">
				
					<image overflow="visible" width="998" height="998" xlink:href="8B31774A.jpg"  transform="matrix(0.24 0 0 0.24 180.9333 150.3145)">
				</image>
			</g>
		</mask>
		<g opacity="0.3" mask="url(#SVGID_1_)">
			<circle cx="300.7" cy="270.1" r="117.8"/>
		</g>
	</g>
	<g opacity="0.3">
		<defs>
			<circle id="SVGID_2_" opacity="0.3" cx="300.7" cy="270.1" r="117.8"/>
		</defs>
		<clipPath id="SVGID_3_">
			<use xlink:href="#SVGID_2_"  overflow="visible"/>
		</clipPath>
		<g clip-path="url(#SVGID_3_)">
			<path fill="#FFFFFF" d="M263.7,326.2c3.4-15.5-6.4-30.9-21.9-34.3c-15.5-3.4-30.9,6.4-34.3,21.9c-1.4,6.3-0.6,12.8,2.2,18.7
				c2,4.1,3.8,8.5,5.2,12.9l-3.8,17.1c-0.3,1.6,0.6,3.1,2.2,3.4l3.2,0.7l-0.3,1.4c-0.7,3.3,1.4,6.5,4.6,7.2l4.9,1.1
				c3.3,0.7,6.5-1.4,7.2-4.6l0.3-1.4l3.2,0.7c1.6,0.3,3.1-0.6,3.4-2.2l3.7-17.1c3.1-3.4,6.5-6.6,10.1-9.5
				C258.9,338.1,262.3,332.5,263.7,326.2L263.7,326.2z M226.1,344l-0.2-22.3l3.3-1.2l2.9,4.2c0.2,0.3,0.6,0.5,1,0.6
				c0.4,0.1,0.8,0,1.1-0.3l4-3.1l1,4c0.1,0.5,0.6,0.9,1.1,1c0.2,0,0.4,0,0.6,0l2.6-0.5l-9.1,19.3L226.1,344z M237.7,352.5l-1,4.7
				l-17.6-3.9l1-4.7L237.7,352.5z M217.5,360.9l1-4.7l17.6,3.9l-1,4.7L217.5,360.9z M240.2,347.1l-1.6-0.3l10.4-22
				c0.5-1.1,0-2.4-1-2.9c-1.1-0.5-2.4-0.1-2.9,1l-0.2,0.4l-3.3,0.6l-1.3-4.8c-0.1-0.5-0.5-0.8-0.9-1c-0.5-0.2-1-0.1-1.3,0.2
				l-4.5,3.5l-2.6-3.8c-0.4-0.5-1.1-0.8-1.7-0.5l-3.4,1.2l0-0.1c0-1.2-1-2.1-2.2-2.1c-1.2,0-2.1,1-2.1,2.2l0.2,24.4l-1.6-0.3
				c-1.5-4.3-3.3-8.7-5.2-12.7c-2.3-4.7-2.9-9.8-1.8-14.9c2.7-12.4,15-20.3,27.4-17.5c12.4,2.7,20.3,15,17.5,27.4
				c-1.1,5.1-3.8,9.5-7.8,12.8C246.7,340.7,243.3,343.8,240.2,347.1L240.2,347.1z M240.2,347.1"/>
		</g>
		<g clip-path="url(#SVGID_3_)">
			<path fill="#FFFFFF" d="M334.5,261.9c-2.3-3.5-5.3-6.5-8.9-8.6c-0.7-0.4-1.5-0.4-2.2,0c-0.7,0.4-1.1,1.1-1.1,1.9v4.5
				c0,0.7,0.3,1.3,0.8,1.7c4.8,3.6,7.6,9.4,7.6,15.4c0,10.6-8.7,19.3-19.3,19.3c-10.6,0-19.3-8.7-19.3-19.3c0-6,2.9-11.7,7.6-15.4
				c0.5-0.4,0.8-1,0.8-1.7v-4.5c0-0.8-0.4-1.5-1.1-1.9c-0.7-0.4-1.5-0.4-2.2,0c-3.6,2.1-6.6,5.1-8.9,8.6c-2.8,4.4-4.3,9.5-4.3,14.8
				c0,7.3,2.8,14.2,8,19.3c5.2,5.2,12,8,19.3,8c7.3,0,14.2-2.8,19.3-8c5.2-5.2,8-12,8-19.3C338.9,271.4,337.4,266.3,334.5,261.9
				L334.5,261.9z M334.5,261.9"/>
			<path fill="#FFFFFF" d="M309,279.1h5c1.1,0,2-0.9,2-2V248c0-1.1-0.9-2-2-2h-5c-1.1,0-2,0.9-2,2v29.1
				C307,278.2,307.9,279.1,309,279.1L309,279.1z M309,279.1"/>
		</g>
		<g clip-path="url(#SVGID_3_)">
			<path fill="#FFFFFF" d="M209.3,229.1c-0.2-0.9-0.7-1.8-1.1-2.7c-4.3-10.3-13.6-14-21.2-14c-10.1,0-21.3,6.8-22.7,20.8v2.9
				c0,0.1,0,1.2,0.1,1.7c0.8,6.7,6.1,13.7,10,20.4c4.2,7.1,8.6,14.2,13,21.2c2.7-4.6,5.3-9.2,8-13.7c0.7-1.3,1.5-2.6,2.3-3.9
				c0.5-0.8,1.4-1.7,1.8-2.4c4.2-7.7,11-15.5,11-23.2V233C210.4,232.2,209.3,229.3,209.3,229.1L209.3,229.1z M187.2,243.5
				c-3,0-6.2-1.5-7.8-5.6c-0.2-0.7-0.2-2-0.2-2.1v-1.8c0-5.2,4.4-7.6,8.3-7.6c4.8,0,8.4,3.8,8.4,8.6
				C195.9,239.6,192,243.5,187.2,243.5L187.2,243.5z M187.2,243.5"/>
		</g>
		<g clip-path="url(#SVGID_3_)">
			<path fill="#FFFFFF" d="M352.7,232.6h3c-0.6,11.6,11.5,13.8,20.9,13.5c0.4,0.7,1.1,1.1,1.9,1.1h9.6c1.2,0,2.2-1,2.2-2.2v-2
				c0-1.2-1-2.2-2.2-2.2h-9.6c-1.1,0-2,0.8-2.2,1.8c-7.6,0.4-17.5-0.7-17.1-9.9h4.1c1.1,0,1.9-0.9,1.9-1.9v-22.3
				c0-1.1-0.9-1.9-1.9-1.9h-5.8c0.8-13.8,12.2-25.1,25.6-25.1c13.4,0,24.8,11.4,25.6,25.1h-6.1c-1.1,0-1.9,0.9-1.9,1.9v22.3
				c0,1.1,0.8,1.9,1.9,1.9h10.8c1.1,0,1.9-0.9,1.9-1.9v-22.3c0-0.5-0.2-0.9-0.5-1.2c-0.4-17.4-14.8-31.9-31.7-31.9
				c-16.9,0-31.2,14.4-31.7,31.6c-0.4,0.3-0.7,0.9-0.7,1.5v22.3C350.8,231.8,351.6,232.6,352.7,232.6L352.7,232.6z M352.7,232.6"/>
		</g>
		<g clip-path="url(#SVGID_3_)">
			<path fill="#FFFFFF" d="M317.1,146.1c2.8,1.8,4.8,4.8,5.2,8.3c1.2,0.5,2.4,0.8,3.8,0.8c5,0,9-4,9-9c0-5-4-9-9-9
				C321.2,137.2,317.2,141.2,317.1,146.1L317.1,146.1z M311.2,164.5c5,0,9-4,9-9c0-5-4-9-9-9c-5,0-9,4-9,9
				C302.2,160.5,306.2,164.5,311.2,164.5L311.2,164.5z M315,165.2h-7.6c-6.4,0-11.5,5.2-11.5,11.5v9.4l0,0.1l0.6,0.2
				c6.1,1.9,11.3,2.5,15.7,2.5c8.5,0,13.4-2.4,13.7-2.6l0.6-0.3h0.1v-9.4C326.5,170.3,321.4,165.2,315,165.2L315,165.2z
				 M329.9,155.9h-7.6c-0.1,3-1.4,5.8-3.4,7.7c5.7,1.7,9.8,6.9,9.8,13.1v2.9c7.5-0.3,11.8-2.4,12.1-2.5l0.6-0.3h0.1v-9.4
				C341.4,161,336.3,155.9,329.9,155.9L329.9,155.9z M295.4,155.2c1.8,0,3.4-0.5,4.8-1.4c0.4-2.9,2-5.4,4.2-7.1c0-0.2,0-0.3,0-0.5
				c0-5-4-9-9-9c-5,0-9,4-9,9C286.4,151.2,290.4,155.2,295.4,155.2L295.4,155.2z M303.5,163.6c-2-2-3.3-4.7-3.4-7.7
				c-0.3,0-0.6,0-0.8,0h-7.6c-6.4,0-11.5,5.2-11.5,11.5v9.4l0,0.1l0.6,0.2c4.9,1.5,9.2,2.2,13,2.4v-2.8
				C293.7,170.5,297.8,165.3,303.5,163.6L303.5,163.6z M303.5,163.6"/>
		</g>
		<g clip-path="url(#SVGID_3_)">
			<path fill="#FFFFFF" d="M304.4,344c0.2,0.2,0.4,0.3,0.6,0.3h26c0.2,0,0.5-0.1,0.6-0.3c0.2-0.2,0.2-0.4,0.2-0.7
				c-0.7-7-4-13.4-9.2-18c-5.2-4.6-11.9-7.2-18.9-7.2c-6.4,0-12.7,2.2-17.7,6.2c-0.2,0.2-0.3,0.4-0.3,0.6c0,0.2,0.1,0.5,0.3,0.7
				L304.4,344z M300.9,334.1l7.5-11.1c0.9,0.2,1.7,0.4,2.5,0.6l-8.2,12.3L300.9,334.1z M303.8,322.6c0.2,0,0.4,0,0.7,0l-6.1,9l-2-2
				l4.9-6.9C302.1,322.7,303,322.6,303.8,322.6L303.8,322.6z M296.3,323.8l-2.4,3.4l-1.6-1.6c1.1-0.6,2.2-1.1,3.3-1.5
				C295.9,324,296.1,323.9,296.3,323.8L296.3,323.8z M318.4,339.8l4.7-7.1c0.3,0.5,0.6,0.9,0.9,1.4l-3.9,5.7H318.4z M324.4,339.8
				l1.5-2.2c0.3,0.7,0.5,1.4,0.7,2.2H324.4z M311.5,339.8l7.7-11.5c0.2,0.2,0.5,0.4,0.7,0.6c0.3,0.3,0.7,0.7,1,1l-6.6,9.9H311.5z
				 M307.3,339.8h-0.8l-1.3-1.3l9-13.5c0.7,0.4,1.4,0.7,2.1,1.2L307.3,339.8z M307.3,339.8"/>
			<path fill="#FFFFFF" d="M300.7,346.2l-17.6-17.6c-0.2-0.2-0.4-0.3-0.7-0.3c-0.2,0-0.5,0.1-0.6,0.3c-4,5-6.2,11.3-6.2,17.7
				c0,8.8,4,16.9,10.9,22.3c0.2,0.1,0.3,0.2,0.5,0.2c0.1,0,0.1,0,0.2,0c0.2,0,0.5-0.2,0.6-0.4l13-21.2
				C301,346.9,301,346.5,300.7,346.2L300.7,346.2z M295.5,347.3l-9.2,15c-1.4-1.6-2.6-3.3-3.6-5.2c-1.7-3.4-2.6-7-2.6-10.8
				c0-2.8,0.5-5.6,1.4-8.2c0.4-1.1,0.9-2.2,1.5-3.3L295.5,347.3z M295.5,347.3"/>
			<path fill="#FFFFFF" d="M331,348.4h-25.6c-0.3,0-0.6,0.2-0.7,0.4l-13.4,21.8c-0.1,0.2-0.2,0.5-0.1,0.7c0.1,0.2,0.2,0.4,0.5,0.5
				c3.8,1.8,7.9,2.7,12.1,2.7c7,0,13.7-2.6,18.9-7.2c5.2-4.6,8.4-11,9.2-18c0-0.2-0.1-0.5-0.2-0.7
				C331.5,348.5,331.3,348.4,331,348.4L331,348.4z M331,348.4"/>
		</g>
		<g clip-path="url(#SVGID_3_)">
			<path fill="#FFFFFF" d="M354.4,349.3c1.5,0,2.8-0.9,3.3-2.2c2.3-5.5,7.8-9.4,14.1-9.4c3.5,0,6.7,1.2,9.3,3.2l-2,0.3
				c-0.7,0.1-1.2,0.7-1.3,1.3c-0.1,0.7,0.3,1.4,0.9,1.6l11.1,5c0.5,0.2,1.1,0.2,1.5-0.1c0.4-0.3,0.7-0.8,0.7-1.3l0.1-12.2
				c0-0.7-0.5-1.3-1.1-1.5c-0.7-0.2-1.4,0.1-1.8,0.6l-1.5,2.3c-4.1-4-9.7-6.5-15.8-6.5c-9.3,0-17.4,5.7-20.8,13.8
				c-0.5,1.1-0.4,2.4,0.3,3.4C352.1,348.7,353.2,349.3,354.4,349.3L354.4,349.3z M354.4,349.3"/>
			<path fill="#FFFFFF" d="M392.4,358.4c-0.7-1-1.8-1.6-3-1.6c-1.5,0-2.8,0.9-3.3,2.2c-2.3,5.5-7.8,9.4-14.1,9.4
				c-3.5,0-6.7-1.2-9.3-3.2l2-0.3c0.7-0.1,1.2-0.7,1.3-1.3c0.1-0.7-0.3-1.4-0.9-1.6l-11.1-5c-0.5-0.2-1-0.2-1.5,0.1
				c-0.4,0.3-0.7,0.8-0.7,1.3l-0.1,12.2c0,0.7,0.5,1.3,1.1,1.5c0.7,0.2,1.4-0.1,1.8-0.6l1.5-2.3c4.1,4,9.7,6.5,15.8,6.5
				c9.3,0,17.4-5.7,20.8-13.8C393.2,360.7,393,359.4,392.4,358.4L392.4,358.4z M392.4,358.4"/>
		</g>
		<g clip-path="url(#SVGID_3_)">
			<path fill="#FFFFFF" d="M225.1,211.1c0.4,1.5,1,2.9,1.8,4.2l-2.1,2.7c-0.7,0.9-0.6,2.1,0.2,2.9l3.7,3.7c0.8,0.8,2,0.9,2.9,0.2
				l2.7-2.1c1.4,0.8,2.8,1.4,4.3,1.8l0.4,3.4c0.1,1.1,1.1,1.9,2.2,1.9h5.2c1.1,0,2-0.8,2.2-1.9l0.4-3.3c1.6-0.4,3.2-1.1,4.7-1.9
				l2.6,2c0.9,0.7,2.1,0.6,2.9-0.2l3.7-3.7c0.8-0.8,0.9-2,0.2-2.9l-2-2.5c0.8-1.4,1.5-3,1.9-4.6l3.1-0.4c1.1-0.1,1.9-1.1,1.9-2.2
				v-5.2c0-1.1-0.8-2-1.9-2.2l-3-0.4c-0.4-1.6-1-3.1-1.8-4.5l1.9-2.4c0.7-0.9,0.6-2.1-0.2-2.9l-3.7-3.7c-0.8-0.8-2-0.9-2.9-0.2
				l-2.3,1.8c-1.5-0.9-3.1-1.5-4.8-2l-0.3-3c-0.1-1.1-1.1-1.9-2.2-1.9h-5.2c-1.1,0-2,0.8-2.2,1.9l-0.3,3c-1.7,0.5-3.4,1.2-4.9,2.1
				l-2.4-1.9c-0.9-0.7-2.1-0.6-2.9,0.2l-3.7,3.7c-0.8,0.8-0.9,2-0.2,2.9l2,2.5c-0.8,1.4-1.4,3-1.8,4.6l-3.2,0.4
				c-1.1,0.1-1.9,1.1-1.9,2.2v5.2c0,1.1,0.8,2,1.9,2.2L225.1,211.1z M243.9,197.1c4.7,0,8.6,3.8,8.6,8.6c0,4.7-3.8,8.6-8.6,8.6
				c-4.7,0-8.6-3.8-8.6-8.6C235.3,201,239.2,197.1,243.9,197.1L243.9,197.1z M243.9,197.1"/>
			<path fill="#FFFFFF" d="M295.1,212.4l-2.7-2.3c-0.8-0.7-2.1-0.7-2.9,0.1l-1.5,1.4c-1.3-0.6-2.6-1-4-1.3l-0.4-2.1
				c-0.2-1.1-1.2-1.8-2.3-1.7l-3.6,0.3c-1.1,0.1-2,1-2,2.1l-0.1,2.1c-1.4,0.5-2.7,1.2-3.8,2l-1.8-1.2c-0.9-0.6-2.1-0.4-2.9,0.4
				l-2.3,2.7c-0.7,0.8-0.7,2.1,0.1,2.9l1.6,1.7c-0.5,1.2-0.9,2.5-1.2,3.9l-2.3,0.5c-1.1,0.2-1.8,1.2-1.7,2.3l0.3,3.6
				c0.1,1.1,1,2,2.1,2l2.4,0.1c0.4,1.2,1,2.3,1.7,3.3l-1.4,2.1c-0.6,0.9-0.4,2.1,0.4,2.9l2.7,2.3c0.8,0.7,2.1,0.7,2.9-0.1l1.8-1.7
				c1.2,0.5,2.4,1,3.7,1.2l0.5,2.4c0.2,1.1,1.2,1.8,2.3,1.7l3.6-0.3c1.1-0.1,2-1,2-2.1l0.1-2.4c1.3-0.5,2.5-1.1,3.7-1.9l2,1.3
				c0.9,0.6,2.1,0.4,2.9-0.4l2.3-2.7c0.7-0.8,0.7-2.1-0.1-2.9l-1.6-1.7c0.6-1.2,1-2.5,1.2-3.9l2.2-0.4c1.1-0.2,1.8-1.2,1.7-2.3
				l-0.3-3.6c-0.1-1.1-1-2-2.1-2l-2.2-0.1c-0.5-1.3-1.1-2.5-1.8-3.6l1.2-1.8C296.1,214.3,295.9,213.1,295.1,212.4L295.1,212.4z
				 M281.7,233c-3.9,0.3-7.3-2.5-7.6-6.4c-0.3-3.9,2.5-7.3,6.4-7.6c3.9-0.3,7.3,2.5,7.6,6.4C288.4,229.3,285.5,232.7,281.7,233
				L281.7,233z M281.7,233"/>
			<path fill="#FFFFFF" d="M237.6,242.6c-1.1,0.1-1.9,1-1.9,2.1l0,2.2c0,1.1,0.8,2,1.9,2.2l1.6,0.2c0.3,1,0.7,1.9,1.1,2.8l-1,1.3
				c-0.7,0.9-0.6,2.1,0.1,2.9l1.5,1.6c0.8,0.8,2,0.9,2.9,0.2l1.3-1c0.9,0.5,1.9,1,2.9,1.3l0.2,1.7c0.1,1.1,1,1.9,2.1,1.9l2.2,0
				c1.1,0,2-0.8,2.2-1.9l0.2-1.6c1.1-0.3,2.1-0.7,3.1-1.2l1.2,1c0.9,0.7,2.1,0.6,2.9-0.1l1.6-1.5c0.8-0.8,0.9-2,0.2-2.9l-0.9-1.2
				c0.6-1,1-2,1.3-3l1.4-0.1c1.1-0.1,1.9-1,1.9-2.1l0-2.2c0-1.1-0.8-2-1.9-2.2l-1.4-0.2c-0.3-1.1-0.7-2.1-1.2-3l0.9-1.1
				c0.7-0.9,0.6-2.1-0.1-2.9l-1.5-1.6c-0.8-0.8-2-0.9-2.9-0.2l-1.1,0.8c-1-0.6-2-1.1-3.2-1.4l-0.1-1.4c-0.1-1.1-1-1.9-2.1-1.9
				l-2.2,0c-1.1,0-2,0.8-2.2,1.9l-0.2,1.4c-1.1,0.3-2.2,0.7-3.3,1.3l-1.1-0.9c-0.9-0.7-2.1-0.6-2.9,0.1l-1.6,1.5
				c-0.8,0.8-0.9,2-0.2,2.9l0.9,1.2c-0.5,1-1,2-1.2,3L237.6,242.6z M251.8,240.1c3.2,0,5.7,2.6,5.6,5.8c0,3.2-2.6,5.7-5.8,5.6
				c-3.1,0-5.7-2.6-5.6-5.8C246,242.6,248.6,240.1,251.8,240.1L251.8,240.1z M251.8,240.1"/>
		</g>
		<g clip-path="url(#SVGID_3_)">
			<path fill="#FFFFFF" d="M433,298.4c0,1.1-0.3,2.1-0.8,3L416.7,284l15.4-13.5c0.6,1,1,2.1,1,3.3V298.4z M408.4,287.1l21.4-18.8
				c-0.9-0.5-1.9-0.8-2.9-0.8h-37c-1.1,0-2.1,0.3-2.9,0.8L408.4,287.1z M414.3,286l-5,4.3c-0.3,0.3-0.7,0.4-1,0.4
				c-0.4,0-0.7-0.1-1-0.4l-5-4.3l-15.8,17.7c0.9,0.6,2.1,1,3.3,1h37c1.2,0,2.3-0.4,3.3-1L414.3,286z M384.6,270.5
				c-0.6,1-1,2.1-1,3.3v24.7c0,1.1,0.3,2.1,0.8,3l15.6-17.4L384.6,270.5z M384.6,270.5"/>
		</g>
	</g>
	<g>
		<g>
			
				<rect x="415.5" y="352.3" transform="matrix(0.7071 -0.7071 0.7071 0.7071 -156.4957 421.1172)" fill="#979797" width="29.1" height="94.3"/>
			
				<rect x="420.4" y="359.9" transform="matrix(0.7074 -0.7069 0.7069 0.7074 -164.1361 417.7487)" fill="#808080" width="4" height="94.3"/>
			
				<rect x="424.7" y="356.9" transform="matrix(0.7074 -0.7068 0.7068 0.7074 -161.0975 418.9596)" fill="#808080" width="1.6" height="94.3"/>
		</g>
		<path fill="#8562A3" d="M536.6,538.4c2.9,2.9,7.5,2.9,10.3,0l22.1-22.1c2.9-2.9,2.9-7.5,0-10.3l-98.5-98.5
			c-2.9-2.9-7.5-2.9-10.3,0l-22.1,22.1c-2.9,2.9-2.9,7.5,0,10.3L536.6,538.4z"/>
		
			<rect x="495.8" y="401.5" transform="matrix(0.707 -0.7072 0.7072 0.707 -192.381 492.4661)" opacity="0.5" fill="#8562A3" width="4.7" height="153.9"/>
		<path opacity="0.5" fill="#8562A3" d="M438.1,429.6l2-2L549,536.4l-2,2c-2.9,2.9-7.5,2.9-10.3,0l-98.5-98.5
			C435.3,437.1,435.3,432.4,438.1,429.6z"/>
		
			<rect x="382.4" y="363.1" transform="matrix(0.7071 -0.7071 0.7071 0.7071 -144.1761 391.3977)" fill="#CACACA" width="36" height="13.2"/>
		
			<rect x="387.4" y="373.4" transform="matrix(0.7075 -0.7067 0.7067 0.7075 -154.4692 386.835)" fill="#B1B1B1" width="5.2" height="13.2"/>
		
			<rect x="393" y="369.3" transform="matrix(0.7069 -0.7073 0.7073 0.7069 -150.385 388.9632)" fill="#B1B1B1" width="2.2" height="13.2"/>
	</g>
	<g>
		<g>
			<g>
				<path fill="#EEBCA0" d="M350,277.9v65.8h35.9c0.6-0.3,0.9-0.4,0.9-0.4c-0.1-0.7-0.1-1.3-0.1-1.9c-0.6-25.7-13.2-33.2-19.1-35.2
					c-1.8-0.6-2.9-0.8-2.9-0.8c-0.3,0-0.5,0-0.7-0.1c-0.6-0.2-1.2-0.7-1.7-1.4c0,0,0,0,0,0c-0.9-1.3-1.6-3.2-2.1-5.6
					c-0.1-0.7-0.3-1.3-0.4-2.1c-0.2-1.2-0.4-2.5-0.5-3.8c0-0.8-0.2-1.6-0.2-2.4c-0.3-4-0.4-8.4-0.4-12.6
					C358.8,277.4,353.9,277.9,350,277.9"/>
				<path fill="#FFD2B2" d="M313.1,343.3c0,0,0.3,0.1,0.9,0.4h36v-65.8h-0.1c-3.9,0-8.8-0.5-8.8-0.5c0,4.1-0.1,8.5-0.4,12.5
					c-0.1,0.8-0.2,1.6-0.2,2.4c-0.2,1.4-0.3,2.7-0.5,3.9v0c-0.1,0.6-0.2,1.1-0.3,1.6c-0.3,1.6-0.7,2.9-1.2,4.1
					c-0.7,1.7-1.5,2.9-2.5,3.3c-0.3,0.2-0.6,0.3-1,0.3C335.1,305.4,313.1,308,313.1,343.3"/>
				<g opacity="0.7">
					<g>
						<defs>
							<rect id="SVGID_4_" x="340" y="289.9" width="19.9" height="11.7"/>
						</defs>
						<clipPath id="SVGID_5_">
							<use xlink:href="#SVGID_4_"  overflow="visible"/>
						</clipPath>
						<path clip-path="url(#SVGID_5_)" fill="#EEBCA0" d="M340,296.2L340,296.2c0.9,1.4,3.9,5.4,9.9,5.4h0.1c5.7,0,9-4.2,9.9-5.4
							c-0.2-1.2-0.4-2.5-0.5-3.8c-0.1-0.8-0.2-1.6-0.2-2.4c-2.8,0.7-5.8,1.1-9.1,1.2H350c-3.3,0-6.4-0.5-9.3-1.3
							c-0.1,0.8-0.2,1.6-0.2,2.4C340.4,293.7,340.2,295,340,296.2"/>
					</g>
				</g>
				<path fill="#FFD2B2" d="M337.1,344.5H314c-0.6-0.3-0.9-0.4-0.9-0.4c0-0.7,0-1.3,0-1.9c0-5.6-1.7-8.6,0.4-14.2
					c2.3-6.2,0.6-6,4.5-12.6c2.7-4.7,9.5-7.2,14.2-8.4c2.8-0.7,4.9-1,4.9-1S337.9,328.7,337.1,344.5"/>
				<path fill="#FFD2B2" d="M362.8,344.5H386c0.6-0.3,0.9-0.4,0.9-0.4c-0.1-0.7-0.1-1.3-0.1-1.9c0.1-5.6,1.7-8.6-0.4-14.2
					c-2.3-6.2-0.6-6-4.5-12.6c-2.7-4.7-9.5-7.2-14.2-8.4c-2.8-0.7-4.9-1-4.9-1S362.1,328.7,362.8,344.5"/>
				<path fill="#348EA9" d="M357.5,301.5c0.3,0.1,4.1,1.9,4.1,1.9c0.6,0.4,7.7,3.7,8.2,4.2c2.8,2.3,0.3,6.9,2.3,9.5
					c8.4,10.9,11.9,16.9,11.2,27.4h-32.9v-35.8L357.5,301.5z"/>
				<path fill="#348EA9" d="M343.5,301.5c-0.3,0.1-4.1,1.9-4.1,1.9c-0.6,0.4-7.6,3.4-8.2,3.9c-2.8,2.3-0.3,7.2-2.3,9.8
					c-8.4,10.9-11.9,16.9-11.2,27.4h32.8v-35.8L343.5,301.5z"/>
				<path fill="#FFFFFF" d="M338.5,300.9c1.2-5.1,1.7-4.7,1.7-4.7s0.2-0.2-0.1,1.3c-0.3,1.3,7.1,3.2,9.4,3.5v0c0,0,0,0,0,0
					c0.1,0,0.2,0,0.3,0c0.1,0,0.2,0,0.3,0c0,0,0.1,0,0.1,0c0,0,0,0,0,0c2.4-0.3,10.2-2.2,10-3.5c-0.3-1.5-0.1-1.3-0.1-1.3
					s0.5-0.4,1.6,4.7c0.5,2.3,1,3.3,1,3.3s-2.6,1.6-5.1,2.5c-5.3,1.8-7.1,9.4-7.1,9.4s0-0.1,0-0.2v0.2c0,0-1.9-7.6-7.5-9.4
					c-2.6-0.8-5.4-2.5-5.4-2.5S338,303.2,338.5,300.9"/>
				<path fill="#EEBCA0" d="M349.3,202.4c-38,0-38.2,31.7-36.6,52.5c-2.6-4.9-10.3-3.4-9.7,4.3c0.6,7.5,11.5,11.3,11.4,10.5
					c3.1,17.1,21,26.9,34.9,26.9c0.1,0,0.2,0,0.3,0v-94.2C349.5,202.4,349.4,202.4,349.3,202.4"/>
				<path fill="#BB9E81" d="M305.5,256c1.9-3,4.8-1.7,5.5-1c0.8,0.7,1.4,1.7,0.9,3.4c-0.3,1-1.3,1.1-1.1,2.6
					c0.3,1.7,1.1,1.8,1.5,2.2c0.4,0.4,1,0.7,1.3,1.4c0.3,0.7,0.3,1.5,0.2,2.1c-0.3,1.2-2.1,0.2-3.3-0.3c-0.8-0.4-3.3-2.5-3.9-3.2
					C305,261.4,304.3,258,305.5,256"/>
				<path fill="#EEBCA0" d="M349.5,202.4c38,0,38.2,31.7,36.5,52.5c2.6-4.9,10.3-3.4,9.7,4.3c-0.6,7.5-11.5,11.3-11.4,10.5
					c-3.1,17.1-21,26.9-34.9,26.9c-0.1,0-0.2,0-0.3,0v-94.2C349.3,202.4,349.4,202.4,349.5,202.4"/>
				<path fill="#BB9E81" d="M393.3,256c-1.9-3-4.8-1.7-5.5-1c-0.8,0.7-1.4,1.7-0.9,3.4c0.3,1,1.3,1.1,1.1,2.6
					c-0.3,1.7-1.1,1.8-1.5,2.2c-0.4,0.4-1,0.7-1.3,1.4c-0.3,0.7-0.3,1.5-0.2,2.1c0.3,1.2,2.1,0.2,3.3-0.3c0.8-0.4,3.3-2.5,3.9-3.2
					C393.8,261.4,394.6,258,393.3,256"/>
				<path fill="#EEBCA0" d="M349.8,211.4c12.5,0,21.7,3.6,27.2,10.8c7.7,10,7.4,25.2,4.6,36.2c-0.9,3.3-1.3,12.4-1.9,15.7
					c-2.7,14.8-19.1,22.7-29.9,22.7c-0.1,0-0.2,0-0.3,0v-85.3C349.6,211.4,349.7,211.4,349.8,211.4"/>
				<path fill="#FFD2B2" d="M322.7,222.2c5.5-7.1,14.6-10.7,26.9-10.8v85.3c-12.3-0.1-27.1-8.8-29.6-22.7c-0.6-3.3-1-12.3-1.9-15.7
					C315.2,247.4,314.9,232.2,322.7,222.2"/>
				<path fill="#F04946" d="M340.1,278.7c0,0,4.2,4.5,9.4,4.5c5.2,0,9.2-4.4,9.2-4.4s-4-0.7-9.2-0.7
					C344.3,278.2,340.1,278.7,340.1,278.7"/>
				<path fill="#F04946" d="M346.8,276.7c1.5,0,2.6,0.9,2.7,2c0-1.1,1.2-2,2.7-2c1.5,0,6.8,2.1,6.8,2.1s-5.2,0.5-6.6,0.5
					c-1.5,0-2.8,0.6-2.8-0.5c0,1.1-1.1,0.7-2.5,0.7c-1.5,0-6.9-0.7-6.9-0.7S345.3,276.7,346.8,276.7"/>
			</g>
			<path fill="#F04946" d="M301.9,228.1c4.1-12.3,13.6-22.9,17.4-27.2c5-5.6,18.1-11.1,19.4-11.7c1.4-0.6,6.6,1.5,11.7,0.4
				c5.1-1.2,15.4,0.3,29.9,9.6c6.8,4.4,11.2,12.5,14.1,20.6c1.5,4.1,2.5,8.3,3.2,12c0.9,4.6,1.3,8.5,1.3,10.6c0,1.4-0.4,3.2-0.9,5.3
				c-0.2,0.7-0.4,1.4-0.6,2.1c-0.6,2.1-1.4,4.3-2.2,6.6l-2.2,3.9c0.2,0.5,0.3,1,0.4,1.5c0.1,0.5,0.2,1,0.2,1.5c0,0.3,0,0.6,0,0.9
				c0,4.2-2.1,7.9-5.3,9.9c1.4,1.8,2.2,4,2.2,6.4c0,6.3-5.7,11.4-12.8,11.4c-0.7,0-1.3-0.1-2-0.1c0.3,0.8,0.4,1.7,0.4,2.6
				c0,4.7-3.6,8.6-8.7,10c-0.3,0.1-0.7,0.2-1,0.3c-0.5-0.1-0.8-0.2-0.8-0.2h-0.2c-0.2,0-0.4-0.1-0.5-0.1c-1.8-0.5-3.1-2.8-4-6.3
				c-0.1-0.5-0.3-1.1-0.4-1.6c-0.2-0.7-0.3-1.9-0.3-1.9s10.4-3.2,18-12.9c1-1.4,3-5.4,3.8-6.9c0.3-6.3-0.4-15.3-0.5-22.1
				c0-2.8-0.1-4.8-0.2-5.3c-0.7-3.7-8.1-10.5-13.5-15.1c-1.5-1.3-2.8-2.3-3.8-3.1c-2.6-2.1-5-4.9-7-7.7c-3-4.2-5.3-8.4-6.6-10.7
				c0,0,2.6,8,3.2,9.5c0.2,0.5,0.4,0.9,0.7,1.3c2,3.9,4.8,6.5,5.3,7c-0.7-0.5-6.4-3.8-9.6-6.6c-0.2-0.2-0.5-0.4-0.7-0.6
				c-0.1,0-0.1-0.1-0.2-0.2c-0.1-0.1-0.1-0.1-0.2-0.2c-0.1-0.1-0.1-0.1-0.2-0.2c-2.8-2.8-5.2-6.6-5.5-7.2c0.2,0.6,1.7,4.4-0.3,9.1
				c-0.4,1.1-1,2.2-1.9,3.3c-2.1,2.8-7.2,5.9-8.4,6.6c0.8-0.7,3.6-3.1,3.9-7.5c0-0.4,0.1-1,0.2-1.7c0.2-1.8,0.5-4.1,0.6-4.6
				c-0.2,0.4-0.9,2.4-2,4.8c-1.1,2.4-2.7,5.2-4.5,7.1c-1.7,1.8-3.4,3.9-4.9,5.7c-1.8,2.2-3.3,4.1-4.2,5c-1.1,1-1.8,4.7-2.2,9.5
				c-0.5,6.1-2.5,17.2-2.4,24c0.7,1.6,2.8,5.5,3.8,6.9c7.6,9.8,18,12.9,18,12.9s-0.2,1.1-0.3,1.9c-0.1,0.6-0.3,1.1-0.4,1.6
				c-0.9,3.4-2.2,5.8-4,6.3c-0.2,0.1-0.4,0.1-0.5,0.1h-0.2c0,0-0.3,0-0.8,0.2c-0.3-0.1-0.7-0.2-1-0.3c-5-1.4-8.7-5.4-8.7-10
				c0-0.9,0.2-1.8,0.4-2.6c-0.6,0.1-1.3,0.1-2,0.1c-7.1,0-12.8-5.1-12.8-11.4c0-2.2,0.7-4.3,2-6c-4.2-2.2-8.3-8.5-8.3-12.5
				c0,0,0-0.1,0-0.1c0-0.5,0.1-1,0.1-1.4c0.2-1.4,0.8-2.8,1.7-4l-0.1-0.1c-1-2.3-1.9-4.7-2.5-7.3c-0.2-0.7-0.3-1.4-0.5-2
				c-0.5-2.1-0.8-4.3-0.8-6.5c0-0.4,0-0.8,0-1.3C299.9,235.5,300.7,231.7,301.9,228.1z"/>
		</g>
		<g>
			<path fill="#EEBCA0" d="M249.1,278.7v65.8H285c0.6-0.2,0.9-0.4,0.9-0.4c0-24.5-10.5-33.2-17-36.3c-2.9-1.4-4.9-1.6-4.9-1.6
				c-2.2,0-3.6-2.8-4.6-7.1c-0.1-0.6-0.3-1.3-0.4-2.1c-0.2-1.2-0.4-2.5-0.5-3.8c-0.1-0.8-0.2-1.6-0.2-2.4c-0.3-4-0.4-8.4-0.4-12.6
				C257.8,278.3,253,278.7,249.1,278.7"/>
			<path fill="#FFD2B2" d="M212.2,344.1c0,0,0.3,0.1,0.9,0.4h36v-65.8H249c-3.9,0-8.8-0.5-8.8-0.5c0,4.1-0.1,8.5-0.4,12.5
				c-0.1,0.8-0.2,1.6-0.2,2.4c-0.1,1.4-0.3,2.7-0.5,3.9v0c-0.1,0.6-0.2,1-0.3,1.6c-0.9,4.5-2.4,7.6-4.7,7.6c0,0-2.6,0.3-6.1,2.2
				C221.6,312,212.2,321.1,212.2,344.1"/>
			<g opacity="0.7">
				<g>
					<defs>
						<rect id="SVGID_6_" x="239.1" y="290.7" width="19.9" height="11.7"/>
					</defs>
					<clipPath id="SVGID_7_">
						<use xlink:href="#SVGID_6_"  overflow="visible"/>
					</clipPath>
					<path clip-path="url(#SVGID_7_)" fill="#EEBCA0" d="M239.1,297L239.1,297c0.9,1.4,3.9,5.4,9.9,5.4h0.1c5.7,0,9-4.2,9.9-5.4
						c-0.2-1.2-0.4-2.5-0.5-3.8c-0.1-0.8-0.2-1.6-0.2-2.4c-2.8,0.7-5.8,1.1-9.1,1.2h-0.1c-3.3,0-6.4-0.5-9.3-1.3
						c-0.1,0.8-0.1,1.6-0.2,2.4C239.5,294.5,239.3,295.8,239.1,297"/>
				</g>
			</g>
			<path fill="#EEBCA0" d="M249.3,203.3c38,0,38.2,31.7,36.6,52.5c2.6-4.9,10.3-3.4,9.7,4.3c-0.6,7.5-11.5,11.3-11.4,10.5
				c-3.1,17.1-21,27-34.9,27c-0.1,0-0.2,0-0.3,0v-94.2C249.2,203.3,249.2,203.3,249.3,203.3"/>
			<path fill="#CF9482" d="M293,256.8c-1.9-3-4.8-1.7-5.5-1c-0.8,0.7-1.4,1.7-0.9,3.4c0.3,1,1.3,1.1,1.1,2.6
				c-0.3,1.7-1.1,1.8-1.5,2.2c-0.4,0.4-1,0.7-1.3,1.4c-0.3,0.7-0.3,1.5-0.2,2.1c0.3,1.2,2.1,0.3,3.3-0.3c0.8-0.4,3.3-2.5,3.9-3.2
				C293.5,262.3,294.3,258.8,293,256.8"/>
			<path fill="#EEBCA0" d="M248.8,203.3c-38,0-38.2,31.7-36.6,52.5c-2.6-4.9-10.3-3.4-9.7,4.3c0.6,7.5,11.5,11.3,11.4,10.5
				c3.1,17.1,21,27,34.9,27c0.1,0,0.2,0,0.3,0v-94.2C249,203.3,248.9,203.3,248.8,203.3"/>
			<path fill="#CF9482" d="M205,256.8c1.9-3,4.8-1.7,5.5-1c0.8,0.7,1.4,1.7,0.9,3.4c-0.3,1-1.3,1.1-1.1,2.6c0.3,1.7,1.1,1.8,1.5,2.2
				c0.4,0.4,1,0.7,1.3,1.4c0.3,0.7,0.3,1.5,0.2,2.1c-0.3,1.2-2.1,0.3-3.3-0.3c-0.8-0.4-3.3-2.5-3.9-3.2
				C204.4,262.2,203.7,258.8,205,256.8"/>
			<path fill="#EEBCA0" d="M249.3,212.2c12.5,0,21.7,3.6,27.2,10.8c7.7,10,7.5,25.2,4.6,36.2c-0.9,3.3-1.3,12.4-1.9,15.7
				c-2.7,14.8-19.1,22.7-29.9,22.7c-0.1,0-0.2,0-0.3,0v-85.3C249.1,212.2,249.2,212.2,249.3,212.2"/>
			<path fill="#FFD2B2" d="M222.2,223c5.5-7.1,14.6-10.7,26.9-10.8v85.3c-12.3-0.1-27.1-8.8-29.6-22.7c-0.6-3.3-1-12.3-1.9-15.7
				C214.7,248.2,214.4,233,222.2,223"/>
			<path fill="#333333" d="M230.8,287.6c0,0.3-0.1,0.5-0.1,0.8c0,2.3,0.6,4.4,1.5,6c0.2,0.6,0.7,1.3,1.4,1.8
				c0.6,0.6,1.3,1.1,2.1,1.3c2.7,1.3,6.6,2.2,11,2.4c0.8,0.2,1.6,0.2,2.5,0.2c0.9,0,1.7-0.1,2.5-0.2c4.4-0.2,8.3-1.1,11-2.4
				c0.8-0.3,1.5-0.7,2.1-1.3c0.7-0.6,1.1-1.2,1.4-1.8c0.9-1.6,1.5-3.7,1.5-6c0-0.3,0-0.5-0.1-0.8c-0.1-2.3-0.8-4.3-1.8-5.8
				c0,0-0.4-0.3-1.1-0.8c-0.7-0.5-1.7-1.2-3.1-2c-1.4-0.8-3.1-2-5.1-2.7c0,0-6.6-3-14.8,0l-0.2,0.1h0c-1.9,0.8-3.5,1.9-4.9,2.7
				c-1.3,0.8-2.4,1.5-3.1,2c-0.7,0.5-1,0.8-1.1,0.8C231.6,283.3,230.9,285.4,230.8,287.6 M236,293.4c-0.7-1.5-1-3.2-1-5
				c0.3-0.8,0.7-1.6,1.3-2.4c0.1-0.1,0.2-0.2,0.3-0.3c1.2-0.9,2.6-1.7,4.1-2.3c2.3-0.5,4.9-0.4,6.7-1.5c0.8-0.5,1.4-1.1,1.9-2.2
				c0.5,1,1.1,1.7,1.9,2.2c1.9,1.1,4.4,1,6.7,1.5c1.5,0.6,2.9,1.4,4.1,2.3c0.1,0.1,0.2,0.2,0.3,0.3c0.6,0.8,1,1.6,1.3,2.4
				c0,1.9-0.4,3.6-1,5c-1.4,0.6-3.1,1.2-5,1.6v0c0-2.9-3.7-5.2-8.3-5.2c-4.6,0-8.3,2.3-8.3,5.2v0C239,294.6,237.3,294.1,236,293.4"
				/>
			<path fill="#333333" d="M215.6,264.3c-0.7,0,0.1-4.2-2.3-7.1c-2.4-2.9-6-12.6-6-22.3c0-9.7,3.1-18.3,11.3-27.5
				c8.1-9.2,20.1-13.6,20.1-13.6l-5.5,5.5c0,0,3-4.5,13.6-8c8.4-2.8,13.9,0.3,13.9,0.3s-5.6-0.2-7.2,2.4c-0.4,0.7-2,1.7-2,1.7
				s2.6-6.3,14.6-1.1c12,5.3,11.8,14.7,20.1,17.5c8.5,3,11-0.8,11-0.8s-3.7,6.7-10.3,6.7c-1.3,0-1.2,0-1.2,0s2.5,7.1,2.9,12.4
				c0.5,5.4-1,9.1-1.5,19.3c-0.4,8.7-2.6,4.2-5.1,10.6c-0.9,2.1-0.9,4.6-0.9,4.6c-1,0.3-3.5-5.2-1.7-14.7c1.2-6.2-4.6-29.5-18.6-25
				c-8.5,2.8-10.7,8.5-17.1,3.4c-5.5-4.3-13.2-6.8-19-3.4c-5.8,3.4-9,11.2-8,23.5C218.1,264.4,215.6,264.3,215.6,264.3"/>
			<path fill="#53BB9B" d="M212.1,344.1c0,0,0.3,0.1,0.9,0.4H285c0.6-0.2,0.9-0.4,0.9-0.4c0-33.2-18.8-38-21.6-38.5
				c-1.5,1.7-3.5,3.7-5.6,5.8c-4.4,4.3-9.1,8.6-9.1,8.6s-5.3-4.4-9.8-8.4c0,0,0-0.1,0-0.1c-1.8-1.6-3.6-3.1-4.8-4.2
				c-0.2-0.2-0.5-0.4-0.6-0.6c-0.5-0.5-0.9-0.8-1.1-1h0c-0.7,0.1-1.6,0.4-2.8,0.9c-0.2,0.1-0.4,0.2-0.6,0.3
				c-1.3,0.6-2.8,1.4-4.3,2.6c-0.2,0.2-0.4,0.3-0.6,0.5C218.8,314.7,212.1,324.4,212.1,344.1"/>
			<path fill="#FFFFFF" d="M235.1,300.7c-0.3,0.2-3.9,7.8-4.5,9.4c-0.6,1.6,0,6.2,0,6.2s0.5-2.5,1.9-3.1c1.4-0.7,4.4-1,5.6-0.4
				c1.2,0.6,6.8,4.9,7.8,5.7c1,0.7,2,1.9,2,2.4v23.7h2.5l-0.2-23.6l-2.7-8.4l-9.8-9.5c0,0,0.6-2.4,0.7-2.7
				C238.5,300.1,235.4,300.5,235.1,300.7"/>
			<path fill="#FFFFFF" d="M263.2,301.1c0.3,0.2,3.9,7.8,4.5,9.4c0.6,1.6,0,6.2,0,6.2s-0.5-2.5-1.9-3.1c-1.4-0.7-4.4-1-5.6-0.4
				c-1.2,0.6-6.8,4.9-7.8,5.7c-1,0.7-4.5,3.1-4.5,3.1l3.5-9.4l9.1-9.1c0,0-0.8-2.5-0.8-2.7C259.7,300.5,262.9,300.9,263.2,301.1"/>
		</g>
	</g>
	<circle fill="none" stroke="#E4E4E4" stroke-width="22.9676" stroke-miterlimit="10" cx="300.7" cy="270.1" r="128.7"/>
	<circle fill="none" stroke="#CACACA" stroke-width="11.4838" stroke-miterlimit="10" cx="300.7" cy="270.1" r="128.7"/>
</g>
<g>
	<g>
		
			<rect x="77.8" y="425.2" transform="matrix(0.7071 -0.7072 0.7072 0.7071 -263.3239 224.341)" fill="#F04946" width="122.6" height="9.6"/>
	</g>
	<g>
		<g>
			
				<ellipse transform="matrix(0.7071 -0.7071 0.7071 0.7071 -306.273 206.5086)" fill="#F04946" cx="96.1" cy="473" rx="10.8" ry="10.8"/>
		</g>
	</g>
</g>
</svg>
