<?xml version="1.0" encoding="utf-8"?>
<!-- Generator: Adobe Illustrator 20.1.0, SVG Export Plug-In . SVG Version: 6.00 Build 0)  -->
<svg version="1.1" id="Слой_1" xmlns="http://www.w3.org/2000/svg" xmlns:xlink="http://www.w3.org/1999/xlink" x="0px" y="0px"
	 viewBox="0 0 712 454.7" enable-background="new 0 0 712 454.7" xml:space="preserve">
<g>
	<path fill="#FFDECC" d="M416.7,133.4c-42.9,18.8-55.8,28.8-60.9,33.4c-7.8,6.9-12.2,32.8-16.8,54.8h97.1h97.1
		c-4.6-22-9-47.8-16.8-54.8c-5.1-4.5-17.5-14.3-60.4-33.1L416.7,133.4z"/>
	<path fill="#333333" d="M416.7,133.4c-42.9,18.8-55.8,28.8-60.9,33.4c-7.8,6.9-12.2,32.8-16.8,54.8h97.1h97.1
		c-4.6-22-9-47.8-16.8-54.8c-5.1-4.5-17.5-14.3-60.4-33.1L416.7,133.4z"/>
	<path fill="#F6C89D" d="M415.2,95.9v31.9v15.7c11.5,13.6,30.2,14,41.7,0v-15.7V95.9C456.9,70.2,415.2,70.2,415.2,95.9z"/>
	
		<ellipse transform="matrix(0.9498 -0.3127 0.3127 0.9498 -4.3572 127.844)" fill="#F6C89D" cx="396.4" cy="77.5" rx="7" ry="12.1"/>
	
		<ellipse transform="matrix(0.3129 -0.9498 0.9498 0.3129 253.229 504.9334)" fill="#F6C89D" cx="475.6" cy="77.4" rx="12.1" ry="7"/>
	<path fill="#FFFFFF" d="M415.2,127.8l-1.8,7.1l5.1,36.9l17.7-17.9L415.2,127.8z"/>
	<path opacity="0.2" enable-background="new    " d="M415.2,118.9v1.5c0,0,10.6,12.6,20.8,13.1c10.2,0.5,20.9-12.2,20.9-12.2V119"/>
	<g>
		<path fill="#F6C89D" d="M436.1,10.5c-64.1,0-39.5,87.8-35.4,94.6c4.6,7.4,25,23.8,35.4,23.8s30.7-16.4,35.4-23.8
			C475.7,98.3,500.2,10.5,436.1,10.5z"/>
		<path fill="#80604A" d="M481.6,70.6c3.3-16.3,1.2-54.4-11.5-53.1c-11.8-12-53-14.2-64.3-1.3C380,21.2,392,70.9,392,70.9
			c0.8,4.8,1.9,9.2,3.1,13c1.7-0.1,3.5-0.2,5.2-0.3c-1.9-3.4-3.4-6.9-4-9.5c-0.3-1.5-1.1-6.8-1-8c0.4-8.9,6.8-34.9,17.9-37
			c4.3-0.8,15.2,9,22.3,8.9c7.5-0.2,16.8-10,21.7-9.4c11.6,1.6,21.4,25.4,21.3,37c0,1.5-1.9,10.3-4.7,16.6c1.9-0.1,3.7-0.2,5.6-0.3
			C480.1,78.5,481,74.7,481.6,70.6L481.6,70.6z"/>
	</g>
	<path fill="#FFFFFF" d="M456.9,127.8l1.4,7l-4.8,37.4l-17.4-18.3L456.9,127.8z"/>
	<polyline opacity="5.000000e-02" enable-background="new    " points="415.2,127.8 436.2,153.8 456.9,127.8 456.9,127.1 
		436.2,153.1 415.2,127.1 415.2,127.8 	"/>
	<polygon opacity="0.1" enable-background="new    " points="432.2,171.3 440,171.3 440,171.6 432.1,171.6 	"/>
	<g>
		<path fill="#80604A" d="M437.7,94.6c-0.9,0-1.6,1.3-1.6,1.3s-0.7-1.3-1.6-1.3c-3.7,0-18.7,1.5-23.1,7.1c0,0,21.3-0.4,22.5-0.7
			c1.2-0.3,2.2-2.7,2.2-2.7s1,2.3,2.2,2.7c1.2,0.3,22.5,0.7,22.5,0.7C456.4,96.1,441.3,94.6,437.7,94.6z"/>
	</g>
</g>
<g>
	<path fill="#FFDECC" d="M246.7,133.4c-42.9,18.8-55.8,28.8-60.9,33.4c-7.8,6.9-12.2,32.8-16.8,54.8h97.1h97.1
		c-4.6-22-9-47.8-16.8-54.8c-5.1-4.5-17.5-14.3-60.4-33.1L246.7,133.4z"/>
	<path fill="#C93838" d="M246.7,133.4c-42.9,18.8-55.8,28.8-60.9,33.4c-7.8,6.9-12.2,32.8-16.8,54.8h97.1h97.1
		c-4.6-22-9-47.8-16.8-54.8c-5.1-4.5-17.5-14.3-60.4-33.1L246.7,133.4z"/>
	<path fill="#F6D1AF" d="M245.2,95.9v31.9v15.7c11.5,13.6,30.2,14,41.7,0v-15.7V95.9C286.9,70.2,245.2,70.2,245.2,95.9z"/>
	
		<ellipse transform="matrix(0.9498 -0.3127 0.3127 0.9498 -12.8813 74.6843)" fill="#F6D1AF" cx="226.4" cy="77.5" rx="7" ry="12.1"/>
	
		<ellipse transform="matrix(0.3129 -0.9498 0.9498 0.3129 136.4196 343.4729)" fill="#F6D1AF" cx="305.6" cy="77.4" rx="12.1" ry="7"/>
	<path opacity="0.2" enable-background="new    " d="M245.2,118.9v1.5c0,0,10.6,12.6,20.8,13.1c10.2,0.5,20.9-12.2,20.9-12.2V119"/>
	<g>
		<path fill="#F6D1AF" d="M266.1,10.5c-64.1,0-39.5,87.8-35.4,94.6c4.6,7.4,25,23.8,35.4,23.8s30.7-16.4,35.4-23.8
			C305.7,98.3,330.2,10.5,266.1,10.5z"/>
		<path fill="#343434" d="M294.9,12.5c-21.7-17-55.1-6.9-65.2,7.3c-12.6,17.8-8.2,44.8-5.2,65v-0.1c0,0.2,0.1,0.4,0.1,0.6
			s0.4,0.6,0.5,0.8c0.1,0.2,0.9,0,1.2-0.1c0.1,0,0.1-0.2,0.1-0.3c0.1-1.8,0-5.3,0-5.4c-0.2-2.8-0.8-5.5-1.3-8.2
			c2-12.8,8-15.5,11.2-30.9c0.7-1,1.4-2,2.1-3c0.9-1.1,1.7-2.2,2.8-3.2c0.5-0.3,1.1-0.7,1.6-1.1c11.7-4.3,23.7,0.9,34.7,5.3
			c4.2,1.7,4.8-5.8,9.5-6.1c2-0.2,6.1,6.6,7.7,6.4c16.5-1.9,9.6,23.1,12.2,34.7c-0.4,2-0.7,4-0.9,6.1c0,0-0.1,3.6,0,5.4
			c0,0.1,0,0.2,0.1,0.3c0.3,0.1,1,0.3,1.2,0.1c0.1-0.1,0.4-0.6,0.5-0.8c0.2-0.8,0.2-1.4,0.3-2.2c0.1-1,0.3-2.1,0.4-3.2
			C311.8,67.5,317.9,17.9,294.9,12.5z M262,29.3c-0.4-0.1-0.7-0.2-1.1-0.3c0.5,0.1,1.1,0.3,1.6,0.4C262.4,29.3,262.2,29.3,262,29.3z
			"/>
	</g>
	<polygon opacity="0.1" enable-background="new    " points="262.2,171.3 270,171.3 270,171.6 262.1,171.6 	"/>
	<path fill="#343434" d="M278.5,18.4c0,0-18.7-13-35.3-6s-31.3,9.7-35,5c0,0-10.3,21.7,9,33s41.3,2.3,47.7-4.7s16.7-18.3,22.3-16
		S278.5,18.4,278.5,18.4z"/>
</g>
<g>
	<path fill="#FFDECC" d="M151.7,219.4c-42.9,18.8-55.8,28.8-60.9,33.4c-7.8,6.9-12.2,32.8-16.8,54.8h97.1h97.1
		c-4.6-22-9-47.8-16.8-54.8c-5.1-4.5-17.5-14.3-60.4-33.1L151.7,219.4z"/>
	<path fill="#EDEDED" d="M151.7,219.4c-42.9,18.8-55.8,28.8-60.9,33.4c-7.8,6.9-12.2,32.8-16.8,54.8h97.1h97.1
		c-4.6-22-9-47.8-16.8-54.8c-5.1-4.5-17.5-14.3-60.4-33.1L151.7,219.4z"/>
	<path fill="#F6C8AC" d="M150.2,181.9v31.9v15.7c11.5,13.6,30.2,14,41.7,0v-15.7v-31.9C191.9,156.2,150.2,156.2,150.2,181.9z"/>
	
		<ellipse transform="matrix(0.9498 -0.3127 0.3127 0.9498 -44.5372 49.2896)" fill="#F6C8AC" cx="131.4" cy="163.5" rx="7" ry="12.1"/>
	
		<ellipse transform="matrix(0.3129 -0.9498 0.9498 0.3129 -10.5362 312.3369)" fill="#F6C8AC" cx="210.6" cy="163.5" rx="12.1" ry="7"/>
	<path fill="#343434" d="M171.2,239.8c0,0-29.1,6.9-29.1,8.7s11.1,59,11.1,59h39.5l4.5-58.8L171.2,239.8z"/>
	<polygon fill="#1A1A1A" points="150.2,220 150.2,229.5 159.3,307.5 143.7,307.5 126.6,272.8 142.9,261.9 123,252.5 141.3,224 	"/>
	<polygon fill="#1B1B1B" points="191.9,220.1 191.9,229.5 182.8,307.5 198.3,307.5 215.5,272.8 199.1,261.9 219.1,252.5 
		202.8,224.9 	"/>
	<path fill="#268085" d="M162.1,249.5l5,7.8c2.6,0,5.2,0,7.8,0l5.1-7.8l-8.9-9.7L162.1,249.5z"/>
	<polygon fill="#268085" points="167.2,257.3 160,307.5 182.2,307.5 175,257.3 	"/>
	<path fill="#343434" d="M150.2,213.8l-1.8,7.1l5.1,36.9l17.7-17.9L150.2,213.8z"/>
	<path opacity="0.2" enable-background="new    " d="M150.2,204.9v1.5c0,0,10.6,12.6,20.8,13.1s20.9-12.2,20.9-12.2V205"/>
	<g>
		<path fill="#F6C8AC" d="M171.1,96.5c-64.1,0-39.5,87.8-35.4,94.6c4.6,7.4,25,23.8,35.4,23.8s30.7-16.4,35.4-23.8
			C210.7,184.3,235.2,96.5,171.1,96.5z"/>
	</g>
	<path fill="#343434" d="M191.9,213.8l1.4,7l-4.8,37.4l-17.4-18.3L191.9,213.8z"/>
	<polyline opacity="5.000000e-02" enable-background="new    " points="150.2,213.8 171.2,239.8 191.9,213.8 191.9,213.1 
		171.2,239.1 150.2,213.1 150.2,213.8 	"/>
	<polygon opacity="0.1" enable-background="new    " points="167.2,257.3 175,257.3 175,257.6 167.1,257.6 	"/>
	<g>
		<path fill="#605343" d="M212.8,161.5c-0.3,1.2-0.7,2.3-0.7,2.3s-5.8,19.6-10.7,25.6c-9.5,11.7-21.9,19-30.4,19.1
			c-8.3,0-20.6-6.6-30.2-18c-3.8-4.5-10.8-25-10.9-26.7c-0.1-1-0.3-2.1-0.5-3.1c-1.3,0-1.3,8.7-1.3,8.7c1.9,10.2,3.3,16.8,7.3,22.4
			c6.4,8.9,24.3,23,35.3,23c10.9,0,28.9-14.1,35.3-23c4-5.6,5.1-13.1,7.3-23.6C213.3,168.1,213.8,161.6,212.8,161.5z"/>
		<g>
			<path fill="#605343" d="M190.8,187.7c-1.5-3.1-13.4-7.3-15.6-8.1c-2.2-0.8-3.7,2-3.7,2s-1.5-2.8-3.7-2s-14.1,5-15.6,8.1
				s-2.2,5.3-2.2,7.4c0,2.1,0,9.7,0,9.7s2.1,0.1,3.3-0.8c1.2-0.9,2.6-3.5,2.6-6.8s2.4-5.9,5.3-6.5c3.1-0.6,10.2-1.8,10.2-3.7
				c0,1.9,7.6,3.3,10.2,3.7c2.9,0.5,5.3,3.2,5.3,6.5s1.4,5.9,2.6,6.8c1.2,0.9,3.3,0.8,3.3,0.8s0-7.6,0-9.7
				C193,193,192.3,190.8,190.8,187.7z"/>
		</g>
	</g>
	<path fill="#268085" d="M191.5,174.7c0.4,0,0.7,0,1.1-0.1c10.4-0.9,13-5.6,14.2-11.5c1.3-6.5,1.4-8.8,3.1-9.4
		c1.2-0.4,1.5-1.9,1.5-3.6c0-1.7-0.1-1.9-2.1-2.6c-1.6-0.6-10.5-1.4-17.2-0.9v1.8c5.3-0.3,10.3,0.3,11.8,1.3
		c3.3,2.2,2.4,12.6-0.5,17.8c-2,3.6-7.1,5.4-11.8,5.5L191.5,174.7z M172,150.1c-2.3,0.1-11.7-2.7-18.4-3.2c-0.5,0-1-0.1-1.5-0.1v1.8
		c5.4,0.2,11.1,1.5,13,4.4c3.2,4.8-2.5,16.4-7.7,19c-1.6,0.8-3.6,1.2-5.8,1.2v1.7c9,0,12.4-6.5,13.5-8.7c2.1-4.1,1.7-9.7,6.8-9.7
		c5.2,0,4.5,5.5,6.3,9.6c1,2.2,3.9,9,13.3,8.7v-1.6c-2.3,0-4.5-0.4-6.1-1.2c-5-2.6-10-14.2-6.5-19c2.1-2.9,7.7-4.2,13.1-4.4v-1.8
		c-0.4,0-0.8,0.1-1.2,0.1C184.7,147.3,177.4,150,172,150.1z M152.1,146.8c-6.6-0.4-15.4,0.5-17,1c-2.1,0.7-2.1,0.9-2.3,2.6
		c-0.1,1.7,0.1,3.1,1.3,3.6c1.6,0.6,1.6,2.9,2.5,9.4c0.8,5.9,3.1,10.6,13.5,11.4c0.5,0,1,0.1,1.5,0.1v-1.7c-4.8,0-10.1-1.8-11.9-5.5
		c-2.5-5.2-2.9-15.6,0.6-17.8c1.5-0.9,6.5-1.6,11.7-1.4L152.1,146.8z"/>
</g>
<g>
	<path fill="#BF9741" d="M90.3,202.5c3.9-7.3,35.4-13.7,48.2,12.2c12.8,25.8,6.4,34.9,13.4,44c7.1,9.1-9.6,79.7-49.1,79.5
		c-42.2-0.2-51.5-67.7-43.1-81.4C68.2,243,60.8,202.4,90.3,202.5z"/>
	<path fill="#7491A0" d="M121.3,322.6c-0.4,0.6-35.6,1.1-35.9,1.7c-11.1,15.8-34.9,18.7-53.9,22.9c-18.9,4.2-19.6,28.2-19.7,44.2
		H196c0-16-0.4-39.9-19.7-44.2C157.1,342.9,131.8,339.1,121.3,322.6z"/>
	<path fill="#FFFFFF" d="M122.4,324.2v8.7l-9,58.6H94.2l-8.9-57.9v-9.1v-0.1c0.4-0.6,35.6-1.1,35.9-1.7
		C121.6,323.1,122,323.6,122.4,324.2z"/>
	<path fill="#F6DBC2" d="M85.4,284.9v30.3v14.9c9.2,18.9,25.9,19.4,36.9,0v-14.9v-30.3C122.3,260.5,85.4,260.5,85.4,284.9z"/>
	<path fill="#F6DBC2" d="M152.6,263.8c-3.7-1.7-8.9,2.4-11.6,9.1c-2.7,6.7-2,13.5,1.7,15.1c3.7,1.7,8.9-2.4,11.6-9.1
		C157,272.2,156.3,265.5,152.6,263.8z"/>
	<path fill="#F6DBC2" d="M55.2,263.8c3.7-1.7,8.9,2.4,11.6,9.1c2.7,6.7,2,13.5-1.7,15.1c-3.7,1.7-8.9-2.4-11.6-9.1
		C50.8,272.2,51.5,265.5,55.2,263.8z"/>
	<path opacity="0.2" enable-background="new    " d="M85.4,307.4v1.3c0,0,11.6,11.6,18.3,11.6s18.6-11.7,18.6-11.7v-1.1L85.4,307.4
		L85.4,307.4z"/>
	<path fill="#F6DBC2" d="M103.9,316.2c-11.5,0-35.7-18.9-43.2-46c-7.6-27.3,6.7-66.5,43.2-66.5s50.7,39.2,43.2,66.5
		C139.6,297.3,115.4,316.2,103.9,316.2z"/>
	<path fill="#BF9741" d="M111.3,237.6c9,18.8,12.6,24.3,24.5,19.4c11.9-5,9.6,8.9,7.5,18.8c10.5-13.4,9.3-26.1,6-39
		c-3.6-14.2-21.7-35.7-38.7-35.3c-9.2-1-23.2,0.2-38.1,10.9c-26,18.7-17.3,60.8-10.3,65.7c-6.8-38.9,9.8-31,21.3-51.4
		C87.2,217.8,101.6,217.2,111.3,237.6z"/>
	<polygon fill="#EDEDED" points="94.4,391.4 78.8,391.4 77.7,391.4 61.7,376.8 78,365.9 58,356.5 71.3,336 76.4,328 85.3,324 
		85.3,333.5 94.2,391.4 	"/>
	<polygon fill="#EDEDED" points="129.6,365.2 145.9,376.1 129.8,391.4 128.8,391.4 113.2,391.4 113.4,391.4 122.4,332.8 
		122.4,323.4 133.2,328.3 138,336.4 149.5,355.9 	"/>
</g>
<g>
	<path fill="#605343" d="M480.3,114.6c2.2-7.3,19.5-13.7,26.5,12.2c7.1,25.8,3.5,34.9,7.4,44c3.9,9.1-5.3,79.7-27,79.5
		c-23.2-0.2-28.3-67.7-23.7-81.4C468.1,155.2,464.1,114.6,480.3,114.6z"/>
	<path fill="#605343" d="M556.7,114.6c-2.2-7.3-19.5-13.7-26.5,12.2c-7.1,25.8-3.5,34.9-7.4,44c-3.9,9.1,5.3,79.7,27,79.5
		c23.2-0.2,28.3-67.7,23.7-81.4S572.9,114.6,556.7,114.6z"/>
	<path fill="#C93838" d="M537.3,220.6c-0.4,0.6-35.6,1.1-35.9,1.7c-11.1,15.8-34.9,18.7-53.9,22.9c-18.9,4.2-19.6,28.2-19.7,44.2
		H612c0-16-0.4-39.9-19.7-44.2C573.1,240.9,547.8,237.1,537.3,220.6z"/>
	<path fill="#C93838" d="M538.4,222.2v8.7l-9,58.6h-19.2l-8.9-57.9v-9.1v-0.1c0.4-0.6,35.6-1.1,35.9-1.7
		C537.6,221.1,538,221.6,538.4,222.2z"/>
	<path fill="#F6DCB9" d="M501.4,182.9v30.3v14.9c9.2,18.9,25.9,19.4,36.9,0v-14.9v-30.3C538.3,158.5,501.4,158.5,501.4,182.9z"/>
	<path fill="#F6DCB9" d="M568.6,161.8c-3.7-1.7-8.9,2.4-11.6,9.1c-2.7,6.7-2,13.5,1.7,15.1c3.7,1.7,8.9-2.4,11.6-9.1
		C573,170.2,572.3,163.5,568.6,161.8z"/>
	<path fill="#F6DCB9" d="M471.2,161.8c3.7-1.7,8.9,2.4,11.6,9.1c2.7,6.7,2,13.5-1.7,15.1c-3.7,1.7-8.9-2.4-11.6-9.1
		S467.5,163.5,471.2,161.8z"/>
	<path opacity="0.2" enable-background="new    " d="M501.4,205.4v1.3c0,0,11.6,11.6,18.3,11.6s18.6-11.7,18.6-11.7v-1.1h-36.9
		V205.4z"/>
	<path fill="#F6DCB9" d="M519.9,214.2c-11.5,0-35.7-18.9-43.2-46c-7.6-27.3,6.7-66.5,43.2-66.5s50.7,39.2,43.2,66.5
		C555.6,195.3,531.4,214.2,519.9,214.2z"/>
	<path fill="#605343" d="M565.3,134.8c-3.6-14.2-21.7-35.7-38.7-35.3c-2.4-0.3-5.2-0.4-8.3-0.2c-3-0.2-5.8-0.1-8.3,0.2
		c-17-0.4-35.1,21.1-38.7,35.3c-2.9,11.4-4.2,22.6,2.8,34.3c1.2,3.5,2.7,6,4.1,7c-1.6-9-1.9-15.4-1.3-20.3c1.3-1.9,3.7-2.5,7.9-0.8
		c11.9,5,15.5-0.6,24.5-19.4c2.7-5.8,4.9-12.6,9-12.5c4.1,0,6.3,6.8,9,12.5c9,18.8,12.6,24.3,24.5,19.4c4.2-1.7,6.6-1.1,7.9,0.8
		c0.6,4.9,0.2,11.4-1.3,20.3c1.4-1,2.9-3.5,4.1-7C569.5,157.4,568.2,146.2,565.3,134.8z"/>
	<polygon fill="#EDEDED" points="510.4,289.4 494.8,289.4 493.7,289.4 477.7,274.8 494,263.9 474,254.5 487.3,234 492.4,226 
		501.3,222 501.3,231.5 510.2,289.4 	"/>
	<polygon fill="#EDEDED" points="545.6,263.2 561.9,274.1 545.8,289.4 544.8,289.4 529.2,289.4 529.4,289.4 538.4,230.8 
		538.4,221.4 549.2,226.3 554,234.4 565.5,253.9 	"/>
</g>
<g>
	<path fill="#FFDECC" d="M584.1,303.4c-42.9,18.8-55.8,28.8-60.9,33.4c-7.8,6.9-12.2,32.8-16.8,54.8h97.1h97.1
		c-4.6-22-9-47.8-16.8-54.8c-5.1-4.5-17.5-14.3-60.4-33.1L584.1,303.4z"/>
	<path fill="#FFFFFF" d="M584.1,303.4c-42.9,18.8-55.8,28.8-60.9,33.4c-7.8,6.9-12.2,32.8-16.8,54.8h97.1h97.1
		c-4.6-22-9-47.8-16.8-54.8c-5.1-4.5-17.5-14.3-60.4-33.1L584.1,303.4z"/>
	<path fill="#DBB18A" d="M582.7,265.9v31.9v15.7c11.5,13.6,30.2,14,41.7,0v-15.7v-31.9C624.4,240.2,582.7,240.2,582.7,265.9z"/>
	
		<ellipse transform="matrix(0.9498 -0.3127 0.3127 0.9498 -49.114 188.7447)" fill="#F6D1AF" cx="563.9" cy="247.5" rx="7" ry="12.1"/>
	
		<ellipse transform="matrix(0.3129 -0.9498 0.9498 0.3129 206.7622 780.8185)" fill="#F6D1AF" cx="643" cy="247.5" rx="12.1" ry="7"/>
	<path fill="#343434" d="M594.6,333.5l5,7.8c2.6,0,5.2,0,7.8,0l5.1-7.8l-8.9-9.7L594.6,333.5z"/>
	<polygon fill="#343434" points="599.6,341.3 592.4,391.6 614.6,391.6 607.5,341.3 	"/>
	<path fill="#EDEDED" d="M582.7,297.8l-1.8,7.1l5.1,36.9l17.7-17.9L582.7,297.8z"/>
	<path opacity="0.2" enable-background="new    " d="M582.7,288.9v1.5c0,0,10.6,12.6,20.8,13.1s20.9-12.2,20.9-12.2V289"/>
	<g>
		<path fill="#DBB18A" d="M603.6,180.5c-64.1,0-39.5,87.8-35.4,94.6c4.6,7.4,25,23.8,35.4,23.8s30.7-16.4,35.4-23.8
			C643.1,268.3,667.7,180.5,603.6,180.5z"/>
		<path fill="#343434" d="M575.6,182.5c21.7-17,64.4-14.6,74.5-0.4c-4.1,14.3-1.1,52.5-4.1,72.8v-0.1c0,0.2-0.1,0.4-0.1,0.6
			c0,0.2-0.4,0.6-0.5,0.8s-0.9,0-1.2-0.1c-0.1,0-0.1-0.2-0.1-0.3c-0.1-1.8,0-5.3,0-5.4c0.2-2.8,0.8-5.5,1.3-8.2
			c-2-12.8-8-15.5-11.2-30.9c-0.7-1-1.4-2-2.1-3c-0.9-1.1-1.7-2.2-2.8-3.2c-0.5-0.3-1.1-0.7-1.6-1.1c-11.7-4.3-11.3-1.1-22.3,3.4
			c-4.2,1.7-16,5-20.7,4.7c-2-0.2-8.8-0.8-9-2.5c-8.7,13.5-9.6,23.1-12.2,34.7c0.4,2,0.7,4,0.9,6.1c0,0,0.1,3.6,0,5.4
			c0,0.1,0,0.2-0.1,0.3c-0.3,0.1-1,0.3-1.2,0.1c-0.1-0.1-0.4-0.6-0.5-0.8c-0.2-0.8-0.2-1.4-0.3-2.2c-0.1-1-0.3-2.1-0.4-3.2
			C558.7,237.5,552.5,187.9,575.6,182.5z M608.4,199.3c0.4-0.1,0.7-0.2,1.1-0.3c-0.5,0.1-1.1,0.3-1.6,0.4
			C608.1,199.3,608.2,199.3,608.4,199.3z"/>
	</g>
	<path fill="#EDEDED" d="M624.4,297.8l1.4,7l-4.8,37.4l-17.4-18.3L624.4,297.8z"/>
	<polyline opacity="5.000000e-02" enable-background="new    " points="582.7,297.8 603.6,323.8 624.4,297.8 624.4,297.1 
		603.6,323.1 582.7,297.1 582.7,297.8 	"/>
	<polygon opacity="0.1" enable-background="new    " points="599.6,341.3 607.5,341.3 607.5,341.6 599.6,341.6 	"/>
</g>
<g>
	<path fill="#FFDECC" d="M330.1,223.4c-42.9,18.8-55.8,28.8-60.9,33.4c-7.8,6.9-12.2,32.8-16.8,54.8h97.1h97.1
		c-4.6-22-9-47.8-16.8-54.8c-5.1-4.5-17.5-14.3-60.4-33.1L330.1,223.4z"/>
	<path fill="#7491A0" d="M330.1,223.4c-42.9,18.8-55.8,28.8-60.9,33.4c-7.8,6.9-12.2,32.8-16.8,54.8h97.1h97.1
		c-4.6-22-9-47.8-16.8-54.8c-5.1-4.5-17.5-14.3-60.4-33.1L330.1,223.4z"/>
	<path fill="#F6D9C7" d="M328.7,185.9v31.9v15.7c11.5,13.6,30.2,14,41.7,0v-15.7v-31.9C370.4,160.2,328.7,160.2,328.7,185.9z"/>
	
		<ellipse transform="matrix(0.9498 -0.3127 0.3127 0.9498 -36.8339 105.3065)" fill="#F6D9C7" cx="309.9" cy="167.5" rx="7" ry="12.1"/>
	
		<ellipse transform="matrix(0.3129 -0.9498 0.9498 0.3129 108.2153 484.6085)" fill="#F6D9C7" cx="389" cy="167.5" rx="12.1" ry="7"/>
	<path fill="#343434" d="M340.6,253.5l5,7.8c2.6,0,5.2,0,7.8,0l5.1-7.8l-8.9-9.7L340.6,253.5z"/>
	<polygon fill="#343434" points="345.6,261.3 338.4,311.6 360.6,311.6 353.5,261.3 	"/>
	<path fill="#EDEDED" d="M328.7,217.8l-1.8,7.1l5.1,36.9l17.7-17.9L328.7,217.8z"/>
	<path opacity="0.2" enable-background="new    " d="M328.7,208.9v1.5c0,0,10.6,12.6,20.8,13.1c10.2,0.5,20.9-12.2,20.9-12.2V209"/>
	<g>
		<path fill="#F6D9C7" d="M349.6,100.5c-64.1,0-39.5,87.8-35.4,94.6c4.6,7.4,25,23.8,35.4,23.8s30.7-16.4,35.4-23.8
			C389.1,188.3,413.7,100.5,349.6,100.5z"/>
		<path fill="#BF9741" d="M379.1,102.5c-22.1-19.5-65.4,5.4-75.5,19.6c4.1,14.3,2.1,32.5,5.1,52.8v-0.1c0,0.2,0.1,0.4,0.1,0.6
			c0,0.2,0.4,0.6,0.5,0.8s0.9,0,1.2-0.1c0.1,0,0.1-0.2,0.1-0.3c0.1-1.8,0-5.3,0-5.4c-0.2-2.8,0.2-5.6-0.2-8.4
			c2-12.8,0.4-13.3,7.4-26.1c0.6-1.1,4.3-5.4,4.8-5.8c11.7-4.3,15.7,2.8,26.7,7.3c4.2,1.7,10.5,1.8,15.2,1.8c7.3,0,14.3-8,14.4-9.6
			c8.7,13.5,9.6,23.1,12.2,34.7c-0.3,2-0.7,4-0.9,6.1c0,0-0.1,3.6,0,5.4c0,0.1,0,0.2,0.1,0.3c0.3,0.1,1,0.3,1.2,0.1
			c0.1-0.1,0.4-0.6,0.5-0.8c0.2-0.8,0.2-1.4,0.3-2.2c0.1-1,0.3-2.1,0.4-3.2C396.1,157.5,402.2,107.9,379.1,102.5z M346.3,119.3
			c-0.4-0.1-0.7-0.2-1.1-0.3c0.5,0.1,1.1,0.3,1.6,0.4C346.7,119.3,346.5,119.3,346.3,119.3z"/>
		<path fill="#605343" d="M141.1,93c22.6-19.5,67,5.4,77.3,19.6c-4.2,14.3-2.1,32.5-5.2,52.8v-0.1c0,0.2-0.1,0.4-0.1,0.6
			c0,0.2-0.4,0.6-0.5,0.8s-0.9,0-1.2-0.1c-0.1,0-0.1-0.2-0.1-0.3c-0.1-1.8,0-5.3,0-5.4c0.2-2.8-0.2-5.6,0.3-8.4
			c-2.1-12.8-0.4-13.3-7.6-26.1c-0.6-1.1-4.4-5.4-5-5.8c-11.9-4.3-16.1,2.8-27.4,7.3c-4.3,1.7-10.8,1.8-15.6,1.8
			c-7.4,0-14.6-8-14.8-9.6c-8.9,13.5-9.8,23.1-12.5,34.7c0.4,2,0.7,4,0.9,6.1c0,0,0.1,3.6,0,5.4c0,0.1,0,0.2-0.1,0.3
			c-0.3,0.1-1.1,0.3-1.2,0.1c-0.1-0.1-0.4-0.6-0.5-0.8c-0.2-0.8-0.2-1.4-0.3-2.2c-0.1-1-0.3-2.1-0.5-3.2
			C123.7,148,117.4,98.3,141.1,93z M174.7,109.7c0.4-0.1,0.7-0.2,1.1-0.3c-0.5,0.1-1.1,0.3-1.6,0.4
			C174.4,109.8,174.5,109.7,174.7,109.7z"/>
	</g>
	<path fill="#EDEDED" d="M370.4,217.8l1.4,7l-4.8,37.4l-17.4-18.3L370.4,217.8z"/>
	<polyline opacity="5.000000e-02" enable-background="new    " points="328.7,217.8 349.6,243.8 370.4,217.8 370.4,217.1 
		349.6,243.1 328.7,217.1 328.7,217.8 	"/>
	<polygon opacity="0.1" enable-background="new    " points="345.6,261.3 353.5,261.3 353.5,261.6 345.6,261.6 	"/>
</g>
<g>
	<path fill="#806049" d="M462.9,233c4.5-7.9,40.8-14.9,55.5,13.2c14.8,28.1,7.3,37.9,15.5,47.8s0.5,32.6-5.2,34.6s-3.4,9.9-0.6,13.2
		c11.8,14.4-5.3,38.7-50.8,38.5c-48.7-0.3-58.2-28.5-45.7-37.4c4.1-2.9,5.6-8.4,1.2-13.3c-4.5-4.9-14.7-23-5-37.9
		C437.5,277.1,429,233,462.9,233z"/>
	<path fill="#268085" d="M497.3,348.6c-0.4,0.6-35.6,1.1-35.9,1.7c-11.1,15.8-34.9,22.7-53.9,26.9c-18.9,4.2-19.6,28.2-19.7,44.2
		H572c0-16-0.4-39.9-19.7-44.2C533.1,372.9,507.8,365.1,497.3,348.6z"/>
	<path fill="#F5D5C1" d="M461.4,314.9v30.3v14.9c9.2,18.9,25.9,19.4,36.9,0v-14.9v-30.3C498.3,290.5,461.4,290.5,461.4,314.9z"/>
	<path fill="#F5D5C1" d="M528.6,293.8c-3.7-1.7-8.9,2.4-11.6,9.1c-2.7,6.7-2,13.5,1.7,15.1c3.7,1.7,8.9-2.4,11.6-9.1
		C533,302.2,532.3,295.5,528.6,293.8z"/>
	<path fill="#F5D5C1" d="M431.2,293.8c3.7-1.7,8.9,2.4,11.6,9.1s2,13.5-1.7,15.1c-3.7,1.7-8.9-2.4-11.6-9.1
		C426.8,302.2,427.5,295.5,431.2,293.8z"/>
	<path opacity="0.2" enable-background="new    " d="M461.4,337.4v1.3c0,0,11.6,11.6,18.3,11.6c6.7,0,18.6-11.7,18.6-11.7v-1.1
		L461.4,337.4L461.4,337.4z"/>
	<path fill="#F5D5C1" d="M479.9,346.2c-11.5,0-35.7-18.9-43.2-46c-7.6-27.3,6.7-66.5,43.2-66.5s50.7,39.2,43.2,66.5
		C515.6,327.3,491.4,346.2,479.9,346.2z"/>
	<path fill="#80604A" d="M471.3,267.6c-9,18.8-12.6,24.3-24.5,19.4c-11.9-5-9.6,8.9-7.5,18.8c-10.5-13.4-9.3-26.1-6-39
		c3.6-14.2,21.7-35.7,38.7-35.3c9.2-1,23.2,0.2,38.1,10.9c26,18.7,17.3,60.8,10.3,65.7c6.8-38.9-9.8-31-21.3-51.4
		C495.4,247.8,481.1,247.2,471.3,267.6z"/>
	<rect x="477.5" y="374.7" fill="#FFFFFF" width="3.8" height="46.7"/>
	<g>
		<polygon fill="#FFFFFF" points="461.4,350.2 448.2,362.3 465,388.3 479.5,374.6 		"/>
		<polygon fill="#FFFFFF" points="498.3,350.1 511.5,362.7 493.9,388.3 479.5,374.6 		"/>
	</g>
	<path fill="#268085" d="M499.9,314.3c0.4,0,0.7,0,1.1-0.1c10.5-0.9,13.1-5.6,14.2-11.5c1.3-6.5,1.4-8.8,3.1-9.4
		c1.2-0.4,1.5-1.9,1.5-3.6s-0.1-1.9-2.1-2.6c-1.6-0.6-10.6-1.4-17.3-1v1.8c5.3-0.3,10.4,0.3,11.9,1.3c3.4,2.2,2.4,12.7-0.5,17.9
		c-2,3.6-7.2,5.5-11.9,5.5L499.9,314.3z M480.3,289.6c-2.3,0.1-11.8-2.7-18.5-3.3c-0.5,0-1-0.1-1.5-0.1v1.8
		c5.5,0.2,11.1,1.5,13.1,4.4c3.2,4.8-2.5,16.5-7.7,19.1c-1.6,0.8-3.6,1.2-5.8,1.2v1.7c9.1,0,12.4-6.5,13.5-8.7
		c2.1-4.1,1.7-9.8,6.9-9.8c5.2,0,4.5,5.5,6.4,9.6c1,2.2,3.9,9,13.3,8.7v-1.7c-2.3,0-4.5-0.4-6.1-1.2c-5-2.6-10-14.3-6.5-19.1
		c2.1-2.9,7.7-4.2,13.1-4.5v-1.8c-0.4,0-0.8,0.1-1.2,0.1C493.1,286.8,485.8,289.5,480.3,289.6z M460.4,286.3
		c-6.6-0.4-15.4,0.5-17.1,1c-2.1,0.7-2.2,0.9-2.3,2.6c-0.1,1.7,0.1,3.2,1.3,3.6c1.7,0.6,1.6,2.9,2.5,9.4c0.8,5.9,3.1,10.6,13.5,11.5
		c0.5,0,1,0.1,1.6,0.1v-1.7c-4.8,0-10.1-1.8-11.9-5.5c-2.5-5.2-2.9-15.7,0.6-17.9c1.5-0.9,6.5-1.6,11.7-1.4L460.4,286.3z"/>
	<polygon opacity="5.000000e-02" enable-background="new    " points="461.4,350.2 479.5,374.6 498.3,350.1 498.3,349.6 
		479.5,373.9 461.4,349.6 	"/>
</g>
<g>
	<path fill="#FFDECC" d="M220.2,337.9c-42.9,18.8-55.8,28.9-60.9,33.4c-7.8,6.9-12.2,32.8-16.8,54.8h97.1h97.1
		c-4.6-22-9-47.8-16.8-54.8c-5.1-4.5-17.5-14.3-60.4-33.1L220.2,337.9z"/>
	<path fill="#333333" d="M220.2,337.9c-42.9,18.8-55.8,28.9-60.9,33.4c-7.8,6.9-12.2,32.8-16.8,54.8h97.1h97.1
		c-4.6-22-9-47.8-16.8-54.8c-5.1-4.5-17.5-14.3-60.4-33.1L220.2,337.9z"/>
	<path fill="#FFDBBA" d="M218.8,300.4v31.9V348c11.5,13.6,30.2,14,41.7,0v-15.7v-31.9C260.5,274.7,218.8,274.7,218.8,300.4z"/>
	<ellipse transform="matrix(0.9498 -0.3127 0.3127 0.9498 -78.149 76.683)" fill="#FFDBBA" cx="200" cy="282" rx="7" ry="12.1"/>
	
		<ellipse transform="matrix(0.3129 -0.9498 0.9498 0.3129 -76.0383 458.9295)" fill="#FFDBBA" cx="279.2" cy="282" rx="12.1" ry="7"/>
	<path fill="#FFFFFF" d="M239.7,358.3c0,0-29.1,6.9-29.1,8.7c0,1.8,11.1,59,11.1,59h39.5l4.5-58.8L239.7,358.3z"/>
	<polygon fill="#605F5B" points="218.8,338.5 218.8,348 227.9,426 212.3,426 195.2,391.3 211.5,380.4 191.5,371 209.9,342.5 	"/>
	<polygon fill="#605F5B" points="260.5,338.6 260.5,348 251.3,426 266.9,426 284,391.3 267.7,380.4 287.7,371 271.3,343.4 	"/>
	<path fill="#C93838" d="M230.7,368l5,7.8c2.6,0,5.2,0,7.8,0l5.1-7.8l-8.9-9.7L230.7,368z"/>
	<polygon fill="#C93838" points="235.7,375.8 228.5,426 250.7,426 243.6,375.8 	"/>
	<path fill="#EDEDED" d="M218.8,332.2l-1.8,7.1l5.1,36.9l17.7-17.9L218.8,332.2z"/>
	<path opacity="0.2" enable-background="new    " d="M218.8,323.4v1.5c0,0,10.6,12.6,20.8,13.1s20.9-12.2,20.9-12.2v-2.3"/>
	<g>
		<path fill="#755A48" d="M272.7,218.5c9.5,1.5,14.8,8.1,17.1,16.9c5.9,23.1-6.4,73.2-49,73.8c-22,0.3-37.8-5.3-43.6-23.1
			c-5.8-17.8-8.1-46.4,4.4-62.5C217.3,203.5,250.4,203.3,272.7,218.5z"/>
		<path fill="#FFDBBA" d="M239.7,215c-64.1,0-39.5,87.8-35.4,94.6c4.6,7.4,25,23.8,35.4,23.8s30.7-16.4,35.4-23.8
			C279.2,302.8,303.8,215,239.7,215z"/>
		<path fill="#755A48" d="M208.6,242.5c11.4,6.9,20.3-3.4,30.6,1s38.2-16.9,44.3,30c9.8-34-5-58.4-42.2-60
			c-39.7-1.7-55.8,34.5-44.8,68.3C195.7,263.6,200.2,251.6,208.6,242.5z"/>
		<g>
			<g>
				<path fill="#755A48" d="M207.6,239.5c0.3,5.9,10.3,6.8,14.5,7.1c4,0.2,7.9-0.3,11.7-1.5c4.7-1.4,10.6-3,14.4-6.2
					c0.4-0.3,0.2-1-0.3-1.1c-7.4-1.2-14.8,5-22.3,5.5c-5.6,0.4-12.8-0.3-17.2-4.1C208.1,239,207.6,239.1,207.6,239.5L207.6,239.5z"
					/>
			</g>
		</g>
	</g>
	<path fill="#C93838" d="M259.5,296.7c0.4,0,0.7,0,1.1-0.1c10.4-0.9,13-5.6,14.2-11.5c1.3-6.5,1.4-8.8,3.1-9.4
		c1.2-0.4,1.5-1.9,1.5-3.6s-0.1-1.9-2.1-2.6c-1.6-0.6-10.5-1.4-17.2-0.9v1.8c5.3-0.3,10.3,0.3,11.8,1.3c3.3,2.2,2.4,12.6-0.5,17.8
		c-2,3.6-7.1,5.4-11.8,5.5L259.5,296.7z M240,272.1c-2.3,0.1-11.7-2.7-18.4-3.2c-0.5,0-1-0.1-1.5-0.1v1.8c5.4,0.2,11.1,1.5,13,4.4
		c3.2,4.8-2.5,16.4-7.7,19c-1.6,0.8-3.6,1.2-5.8,1.2v1.7c9,0,12.4-6.5,13.5-8.7c2.1-4.1,1.7-9.7,6.8-9.7c5.2,0,4.5,5.5,6.3,9.6
		c1,2.2,3.9,9,13.3,8.7v-1.6c-2.3,0-4.5-0.4-6.1-1.2c-5-2.6-10-14.2-6.5-19c2.1-2.9,7.7-4.2,13.1-4.4v-1.8c-0.4,0-0.8,0.1-1.2,0.1
		C252.7,269.3,245.4,272,240,272.1z M220.1,268.8c-6.6-0.4-15.4,0.5-17,1c-2.1,0.7-2.1,0.9-2.3,2.6c-0.1,1.7,0.1,3.1,1.3,3.6
		c1.6,0.6,1.6,2.9,2.5,9.4c0.8,5.9,3.1,10.6,13.5,11.4c0.5,0,1,0.1,1.5,0.1v-1.7c-4.8,0-10.1-1.8-11.9-5.5
		c-2.5-5.2-2.9-15.6,0.6-17.8c1.5-0.9,6.5-1.6,11.7-1.4L220.1,268.8z"/>
	<path fill="#EDEDED" d="M260.5,332.2l1.4,7l-4.8,37.4l-17.4-18.3L260.5,332.2z"/>
	<polyline opacity="5.000000e-02" enable-background="new    " points="218.8,332.2 239.7,358.3 260.5,332.2 260.5,331.6 
		239.7,357.6 218.8,331.6 218.8,332.2 	"/>
	<polygon opacity="0.1" enable-background="new    " points="235.7,375.8 243.6,375.8 243.6,376 235.7,376 	"/>
</g>
<g>
	<path fill="#FFDECC" d="M327.1,363.4c-42.9,18.8-55.8,28.8-60.9,33.4c-7.8,6.9-12.2,32.8-16.8,54.8h97.1h97.1
		c-4.6-22-9-47.8-16.8-54.8c-5.1-4.5-17.5-14.3-60.4-33.1L327.1,363.4z"/>
	<path fill="#333333" d="M327.1,363.4c-42.9,18.8-55.8,28.8-60.9,33.4c-7.8,6.9-12.2,32.8-16.8,54.8h97.1h97.1
		c-4.6-22-9-47.8-16.8-54.8c-5.1-4.5-17.5-14.3-60.4-33.1L327.1,363.4z"/>
	<path fill="#F6C5A0" d="M325.7,325.9v31.9v15.7c11.5,13.6,30.2,14,41.7,0v-15.7v-31.9C367.3,300.2,325.7,300.2,325.7,325.9z"/>
	
		<ellipse transform="matrix(0.9498 -0.3127 0.3127 0.9498 -80.7715 111.3569)" fill="#F6C5A0" cx="306.8" cy="307.5" rx="7" ry="12.1"/>
	
		<ellipse transform="matrix(0.3129 -0.9498 0.9498 0.3129 -26.839 577.9036)" fill="#F6C5A0" cx="386" cy="307.5" rx="12.1" ry="7"/>
	<path fill="#9FBAC4" d="M346.6,383.9c0,0-29.1,6.9-29.1,8.7c0,1.8,11.1,59,11.1,59h39.5l4.5-58.8L346.6,383.9z"/>
	<polygon fill="#1A1A1A" points="325.7,364.1 325.7,373.5 334.7,451.6 319.1,451.6 302,416.8 318.4,405.9 298.4,396.6 316.8,368.1 	
		"/>
	<polygon fill="#1B1B1B" points="367.3,364.1 367.3,373.5 358.2,451.6 373.8,451.6 390.9,416.8 374.5,405.9 394.5,396.6 
		378.2,368.9 	"/>
	<path fill="#28A8E3" d="M337.5,393.5l5,7.8c2.6,0,5.2,0,7.8,0l5-7.8l-8.9-9.7L337.5,393.5z"/>
	<polygon fill="#28A8E3" points="342.6,401.3 335.4,451.6 357.6,451.6 350.4,401.3 	"/>
	<path fill="#FFFFFF" d="M325.7,357.8l-1.8,7.1l5.1,36.9l17.7-17.9L325.7,357.8z"/>
	<path opacity="0.2" enable-background="new    " d="M325.7,349v1.5c0,0,10.6,12.6,20.8,13.1c10.2,0.5,20.9-12.2,20.9-12.2V349"/>
	<g>
		<path fill="#F6C5A0" d="M346.5,240.5c-64.1,0-39.5,87.8-35.4,94.6c4.6,7.4,25,23.8,35.4,23.8s30.7-16.4,35.4-23.8
			C386.1,328.3,410.7,240.5,346.5,240.5z"/>
		<path fill="#605343" d="M375.3,242.5c-21.7-17-55.1-6.9-65.2,7.3c-12.6,17.8-8.2,44.8-5.2,65v-0.1c0,0.2,0.1,0.4,0.1,0.6
			s0.4,0.6,0.5,0.8c0.1,0.2,0.9,0,1.2-0.1c0.1,0,0.1-0.2,0.1-0.3c0.1-1.8,0-5.3,0-5.4c-0.2-2.8-0.8-5.5-1.3-8.2
			c2-12.8,8-15.5,11.2-30.9c0.7-1,1.4-2,2.1-3c0.9-1.1,1.7-2.2,2.8-3.2c0.5-0.3,1.1-0.7,1.6-1.1c11.7-4.3,23.7,0.9,34.7,5.3
			c4.2,1.7,8.9,3.7,13.6,3.4c2-0.2,3.5-1.5,3.7-3.1c5.3,15.8,9.6,23.1,12.2,34.7c-0.4,2-0.7,4-0.9,6.1c0,0-0.1,3.6,0,5.4
			c0,0.1,0,0.2,0.1,0.3c0.3,0.1,1,0.3,1.2,0.1c0.1-0.1,0.4-0.6,0.5-0.8c0.2-0.8,0.2-1.4,0.3-2.2c0.1-1,0.3-2.1,0.4-3.2
			C392.2,297.5,398.4,247.9,375.3,242.5z M342.5,259.3c-0.4-0.1-0.7-0.2-1.1-0.3c0.5,0.1,1.1,0.3,1.6,0.4
			C342.8,259.4,342.6,259.3,342.5,259.3z"/>
	</g>
	<path fill="#FFFFFF" d="M367.3,357.8l1.4,7l-4.8,37.4l-17.4-18.3L367.3,357.8z"/>
	<polyline opacity="5.000000e-02" enable-background="new    " points="325.7,357.8 346.6,383.9 367.3,357.8 367.3,357.2 
		346.6,383.1 325.7,357.2 325.7,357.8 	"/>
	<polygon opacity="0.1" enable-background="new    " points="342.6,401.3 350.4,401.3 350.4,401.6 342.5,401.6 	"/>
</g>
</svg>
